<?xml version="1.0" encoding="utf-8"?>
<svg version="1.1" id="图层_2" xmlns="http://www.w3.org/2000/svg" xmlns:xlink="http://www.w3.org/1999/xlink" x="0px" y="0px"
	 viewBox="0 0 1000 250" style="enable-background:new 0 0 1000 250;" xml:space="preserve">
<style type="text/css">
	.st0{fill:#000000;}
	.st1{fill:#000000;}
	.st2{fill:#65A38A;}
	.st3{fill:#006940;}
	.st4{clip-path:url(#SVGID_00000117668368100596645410000018087223885164219308_);}
	.st5{fill:#8FBBA8;}
	.st6{fill:#FFFFFF;}
	.st7{fill:#007D5B;}
</style>
<g>
	<g>
		<g>
			<g>
				<g>
					<g>
						<path class="st1" d="M265.5,160.9v-13c0-4-0.9-4.8-4.4-5.1v-1.6H276v1.6c-3.6,0.3-4.4,1.1-4.4,5.1v12.8c0,6.3,3.1,9.3,8.3,9.3
							c5.1,0,7.9-3.1,7.9-9.6v-12.6c0-4-0.9-4.8-4.3-5.1v-1.6H295v1.6c-3.5,0.3-4.3,1-4.3,4.6v13.3c0,8-4.4,12.9-12.4,12.9
							C270.3,173.5,265.5,169,265.5,160.9z"/>
						<path class="st1" d="M323.5,172.8h-11.6v-1.6c2-0.2,2.7-0.9,2.7-2.7v-10.2c0-3.3-1.5-4.8-4.2-4.8c-2.2,0-3.8,0.9-4.7,2.9v11.7
							c0,2.4,0.6,2.9,2.7,3.1v1.6h-11.6v-1.6c2.8-0.2,3.6-0.7,3.6-3.1v-12.6c0-1.1-0.9-1.6-2-1.6c-0.4,0-1,0-1.8,0.1v-1.5l6.9-2.2
							h1.7v2.6c0,0.9-0.2,1.8-0.5,3l0.3,0.1c1.3-3.9,4-6.2,8-6.2c4.1,0,7,2.2,7,7.7V168c0,2.5,0.9,3,3.6,3.2V172.8z"/>
						<path class="st1" d="M338.1,172.8h-12.5v-1.6c2.8-0.2,3.5-0.7,3.5-3.1v-12c0-1.6-0.6-2.3-2.1-2.3c-0.5,0-1,0-1.7,0.1v-1.6
							l7.4-2.1h1.8V168c0,2.5,0.9,3,3.6,3.2V172.8z M328.2,143.7c0-1.9,1.5-3.5,3.5-3.5c2,0,3.5,1.5,3.5,3.5c0,2-1.5,3.5-3.5,3.5
							C329.7,147.2,328.2,145.7,328.2,143.7z"/>
						<path class="st1" d="M342,154c-0.8-1.8-1.2-2-2.7-2.1v-1.6h12v1.6c-2.2,0-3.3,0.4-3.3,1.7c0,0.4,0.1,0.9,0.4,1.6l3.6,8.3
							c0.5,1.3,0.8,2.5,0.9,3.9h0.3c0.1-1.2,0.4-2.1,1-3.3l4.2-8.8c0.3-0.6,0.4-1.2,0.4-1.6c0-1.2-1.2-1.7-3.5-1.7v-1.6h8.7v1.6
							c-1.2,0-1.8,0.5-2.5,2.1l-8.7,19h-1.9L342,154z"/>
						<path class="st1" d="M383.8,165.6l1.4,0.7c-0.9,3.3-3.7,7-9.1,7c-6.4,0-10.3-4.7-10.3-11.3c0-7.1,3.8-12.3,10.3-12.3
							c5.6,0,9.1,3.7,9.1,10.2h-14.9c0.4,5.6,3.2,8.6,7.6,8.6C380.9,168.5,382.6,167.4,383.8,165.6z M370.3,157.9h8.8
							c0-3.6-1-6.1-4-6.1C372.2,151.8,370.5,154,370.3,157.9z"/>
						<path class="st1" d="M405.3,149.9v5.9h-1c-0.5-0.3-1.2-0.5-2.1-0.5c-2.4,0-4.8,1.1-4.8,5.1v7.6c0,2.6,1.2,3,4.7,3.2v1.6h-13.6
							v-1.6c2.8-0.2,3.5-0.7,3.5-3.1v-12.2c0-1.4-0.6-1.9-2.1-1.9c-0.4,0-1.1,0-1.7,0.1v-1.5l6.9-2.2h1.7v4.1c0,1.7-0.1,3.7-0.2,4.8
							l0.3,0l0.5-2.9c0.7-4.4,3.4-6.6,6.6-6.6C404.5,149.7,404.9,149.8,405.3,149.9z"/>
						<path class="st1" d="M407.8,171.1v-5.7h1.8c0.8,3.7,3.5,5.6,6.5,5.6c2.3,0,4.1-1,4.1-3.1c0-1.5-0.8-2.4-2.7-3.1l-4.4-1.6
							c-3.1-1-5.3-3.1-5.3-6.4c0-4.4,3.7-7,8.8-7c2.3,0,5.2,0.7,6.9,1.5v5.1h-1.8c-0.8-2.8-3-4.6-5.9-4.6c-2.3,0-3.7,1.1-3.7,2.8
							c0,1.5,0.7,2.5,2.6,3.2l5.1,1.9c2.9,1.1,4.6,3,4.6,6.2c0,4.6-3.6,7.4-9.1,7.4C412.9,173.4,410,172.8,407.8,171.1z"/>
						<path class="st1" d="M439.9,172.8h-12.5v-1.6c2.8-0.2,3.5-0.7,3.5-3.1v-12c0-1.6-0.6-2.3-2.1-2.3c-0.5,0-1,0-1.7,0.1v-1.6
							l7.4-2.1h1.8V168c0,2.5,0.9,3,3.6,3.2V172.8z M430,143.7c0-1.9,1.5-3.5,3.5-3.5c2,0,3.5,1.5,3.5,3.5c0,2-1.5,3.5-3.5,3.5
							C431.5,147.2,430,145.7,430,143.7z"/>
						<path class="st1" d="M466.8,172.8h-8.4v-1.6c0-1,0.1-2.3,0.6-3.7l-0.3-0.1c-1.2,3.7-3.7,6.1-7.5,6.1c-5.3,0-8.9-4.3-8.9-10.6
							c0-8.1,5.4-13,12.1-13c1.5,0,2.7,0.3,3.7,0.8v-6.3c0-1.7-0.7-2.3-2.3-2.3c-0.6,0-1.4,0.1-2.4,0.3v-1.4l8.5-2.3h1.6v30
							c0,2,0.9,2.6,3.3,2.8V172.8z M458.1,153.1c-0.8-0.9-1.9-1.3-3.5-1.3c-3.8,0-6.5,3.1-6.5,9c0,5.1,2.2,8.4,5.7,8.4
							c2,0,3.5-1,4.3-2.3V153.1z"/>
						<path class="st1" d="M491.9,169.4c-0.9,2.6-2.8,3.8-5.1,3.8c-2.4,0-4.1-1.3-4.4-4.1h-0.3c-0.7,2.4-3,4.2-6.2,4.2
							c-3.7,0-6.3-1.9-6.3-5.8c0-3.7,2.8-6,8.3-7.1l4.3-0.9v-1.2c0-3.1-1.5-4.9-4.8-4.9c-2.9,0-4.7,1.3-5.7,3.6l-1.5-0.6
							c0.8-3.5,3.6-6.7,9.1-6.7c5.3,0,8.3,3,8.3,8.8v9c0,1.4,0.5,2.2,1.6,2.2c0.8,0,1.3-0.4,1.7-1L491.9,169.4z M482.2,167.4v-6
							l-2.1,0.4c-3,0.6-4.9,2.1-4.9,4.8c0,2.3,1.3,3.7,3.4,3.7C480.3,170.2,481.5,169.2,482.2,167.4z"/>
						<path class="st1" d="M518.3,172.8H510v-1.6c0-1,0.1-2.3,0.6-3.7l-0.3-0.1c-1.2,3.7-3.7,6.1-7.5,6.1c-5.3,0-8.9-4.3-8.9-10.6
							c0-8.1,5.4-13,12.1-13c1.5,0,2.7,0.3,3.7,0.8v-6.3c0-1.7-0.7-2.3-2.3-2.3c-0.6,0-1.4,0.1-2.4,0.3v-1.4l8.5-2.3h1.6v30
							c0,2,0.9,2.6,3.3,2.8V172.8z M509.6,153.1c-0.8-0.9-1.9-1.3-3.5-1.3c-3.8,0-6.5,3.1-6.5,9c0,5.1,2.2,8.4,5.7,8.4
							c2,0,3.5-1,4.3-2.3V153.1z"/>
						<path class="st1" d="M538.1,165.6l1.4,0.7c-0.9,3.3-3.7,7-9.1,7c-6.4,0-10.3-4.7-10.3-11.3c0-7.1,3.8-12.3,10.3-12.3
							c5.6,0,9.1,3.7,9.1,10.2h-14.9c0.4,5.6,3.2,8.6,7.6,8.6C535.2,168.5,537,167.4,538.1,165.6z M524.6,157.9h8.8
							c0-3.6-1-6.1-4-6.1C526.5,151.8,524.8,154,524.6,157.9z"/>
						<path class="st1" d="M553.6,171.1c3.5-0.3,4.4-1.2,4.4-5.1v-18.1c0-4-0.9-4.8-4.4-5.1v-1.6h14.7c6.2,0,11.4,2.5,11.4,8.6
							c0,6.1-5.2,9-11.6,9h-4.2v7.2c0,4.2,1.1,4.9,5.6,5.1v1.6h-15.8V171.1z M567,156.9c4.2,0,6.5-2.6,6.5-7.1
							c0-4.2-1.9-6.6-6.2-6.6h-3.4v13.8H567z"/>
						<path class="st1" d="M581.4,161.6c0-7,5-11.8,11.6-11.8c6.6,0,11.5,4.8,11.5,11.8c0,7-4.9,11.7-11.5,11.7
							C586.4,173.3,581.4,168.5,581.4,161.6z M598.5,161.6c0-6.6-1.9-9.7-5.5-9.7c-3.7,0-5.5,3-5.5,9.7c0,6.6,1.9,9.6,5.5,9.6
							C596.6,171.1,598.5,168.2,598.5,161.6z"/>
						<path class="st1" d="M619.8,172.8h-12.5v-1.6c2.8-0.2,3.5-0.7,3.5-3.1v-23.9c0-1.9-0.5-2.5-1.9-2.5c-0.5,0-1,0-1.7,0.1v-1.4
							l7.4-1.9h1.6V168c0,2.5,0.9,2.9,3.5,3.2V172.8z"/>
						<path class="st1" d="M634.6,172.8h-12.5v-1.6c2.8-0.2,3.5-0.7,3.5-3.1v-12c0-1.6-0.6-2.3-2.1-2.3c-0.5,0-1,0-1.7,0.1v-1.6
							l7.4-2.1h1.8V168c0,2.5,0.9,3,3.6,3.2V172.8z M624.7,143.7c0-1.9,1.5-3.5,3.5-3.5c2,0,3.5,1.5,3.5,3.5c0,2-1.5,3.5-3.5,3.5
							C626.2,147.2,624.7,145.7,624.7,143.7z"/>
						<path class="st1" d="M639.6,166.9v-14.2h-3.7v-1.3c3.6-1.6,5.9-4,7.9-7h1.2v5.9h6v2.4h-6v12.8c0,3.1,1.6,4.2,3.5,4.2
							c1.2,0,2.2-0.5,2.9-1l0.9,1.2c-1.7,1.9-4.2,3.4-6.9,3.4C641.5,173.3,639.6,171.1,639.6,166.9z"/>
						<path class="st1" d="M671.5,165.6l1.4,0.7c-0.9,3.3-3.7,7-9.1,7c-6.4,0-10.3-4.7-10.3-11.3c0-7.1,3.8-12.3,10.3-12.3
							c5.6,0,9.1,3.7,9.1,10.2H658c0.4,5.6,3.2,8.6,7.6,8.6C668.6,168.5,670.3,167.4,671.5,165.6z M658,157.9h8.8c0-3.6-1-6.1-4-6.1
							C659.9,151.8,658.2,154,658,157.9z"/>
						<path class="st1" d="M675.5,162c0-6.5,4.2-12.2,11.6-12.2c2.5,0,4.6,0.4,6.9,1.4v6.5h-1.8c-0.8-3.3-2.7-5-6-5
							c-3.9,0-6.1,2.8-6.1,7.1c0,5.3,3.1,8.7,7.9,8.7c2.8,0,4.5-1.2,5.5-2.9l1.4,0.7c-0.9,3.8-3.8,7.1-8.9,7.1
							C679.7,173.3,675.5,168.7,675.5,162z"/>
						<path class="st1" d="M724.4,172.8h-11.6v-1.6c2-0.2,2.7-0.9,2.7-2.7v-10.2c0-3.3-1.5-4.8-4.2-4.8c-2.2,0-3.8,0.9-4.7,2.9v11.7
							c0,2.4,0.6,2.9,2.7,3.1v1.6h-11.6v-1.6c2.8-0.2,3.6-0.7,3.6-3.1v-12.6c0-1.1-0.9-1.6-2-1.6c-0.4,0-1,0-1.8,0.1v-1.5l6.9-2.2
							h1.7v2.6c0,0.9-0.2,1.8-0.5,3l0.3,0.1c1.3-3.9,4-6.2,8-6.2c4.1,0,7,2.2,7,7.7V168c0,2.5,0.9,3,3.6,3.2V172.8z"/>
						<path class="st1" d="M739.1,172.8h-12.5v-1.6c2.8-0.2,3.5-0.7,3.5-3.1v-12c0-1.6-0.6-2.3-2.1-2.3c-0.5,0-1,0-1.7,0.1v-1.6
							l7.4-2.1h1.8V168c0,2.5,0.9,3,3.6,3.2V172.8z M729.1,143.7c0-1.9,1.5-3.5,3.5-3.5c2,0,3.5,1.5,3.5,3.5c0,2-1.5,3.5-3.5,3.5
							C730.6,147.2,729.1,145.7,729.1,143.7z"/>
						<path class="st1" d="M740.8,162c0-6.5,4.2-12.2,11.6-12.2c2.5,0,4.6,0.4,6.9,1.4v6.5h-1.8c-0.8-3.3-2.7-5-6-5
							c-3.9,0-6.1,2.8-6.1,7.1c0,5.3,3.1,8.7,7.9,8.7c2.8,0,4.5-1.2,5.5-2.9l1.4,0.7c-0.9,3.8-3.8,7.1-8.9,7.1
							C745,173.3,740.8,168.7,740.8,162z"/>
						<path class="st1" d="M784.8,169.4c-0.9,2.6-2.8,3.8-5.1,3.8c-2.4,0-4.1-1.3-4.4-4.1H775c-0.7,2.4-3,4.2-6.2,4.2
							c-3.7,0-6.3-1.9-6.3-5.8c0-3.7,2.8-6,8.3-7.1l4.3-0.9v-1.2c0-3.1-1.5-4.9-4.8-4.9c-2.9,0-4.7,1.3-5.7,3.6l-1.5-0.6
							c0.8-3.5,3.6-6.7,9.1-6.7c5.3,0,8.3,3,8.3,8.8v9c0,1.4,0.5,2.2,1.6,2.2c0.8,0,1.3-0.4,1.7-1L784.8,169.4z M775.1,167.4v-6
							l-2.1,0.4c-3,0.6-4.9,2.1-4.9,4.8c0,2.3,1.3,3.7,3.4,3.7C773.2,170.2,774.4,169.2,775.1,167.4z"/>
						<path class="st1" d="M821.6,172.8h-8.4v-1.6c0-1,0.1-2.3,0.6-3.7l-0.3-0.1c-1.2,3.7-3.7,6.1-7.5,6.1c-5.3,0-8.9-4.3-8.9-10.6
							c0-8.1,5.4-13,12.1-13c1.5,0,2.7,0.3,3.7,0.8v-6.3c0-1.7-0.7-2.3-2.3-2.3c-0.6,0-1.4,0.1-2.4,0.3v-1.4l8.5-2.3h1.6v30
							c0,2,0.9,2.6,3.3,2.8V172.8z M812.8,153.1c-0.8-0.9-1.9-1.3-3.5-1.3c-3.8,0-6.5,3.1-6.5,9c0,5.1,2.2,8.4,5.7,8.4
							c2,0,3.5-1,4.3-2.3V153.1z"/>
						<path class="st1" d="M841.4,165.6l1.4,0.7c-0.9,3.3-3.7,7-9.1,7c-6.4,0-10.3-4.7-10.3-11.3c0-7.1,3.8-12.3,10.3-12.3
							c5.6,0,9.1,3.7,9.1,10.2h-14.9c0.4,5.6,3.2,8.6,7.6,8.6C838.4,168.5,840.2,167.4,841.4,165.6z M827.9,157.9h8.8
							c0-3.6-1-6.1-4-6.1C829.8,151.8,828.1,154,827.9,157.9z"/>
						<path class="st1" d="M866.2,151.4c-1-2.7-1.6-4.4-2-5.9H864c0,1.9,0,3.7,0,5.7l-0.8,15.2c-0.2,4,0.5,4.4,4.1,4.7v1.6h-11v-1.6
							c3.6-0.4,4.2-0.9,4.4-4.8l1.1-19.4c0.1-3.2-0.9-3.9-4-4.2v-1.6h10.6l7.2,18.1c1.3,3.4,1.6,4.5,1.8,5.7h0.2
							c0.2-1.2,0.8-2.8,1.9-5.7l7.6-18.2h10.3v1.6c-3.2,0.3-4.2,1.2-4.1,4.2l1.1,19.6c0.2,3.7,1,4.2,4.4,4.6v1.6h-14v-1.6
							c3.4-0.3,4.1-0.9,4-4.6l-0.8-15.2c-0.1-1.9-0.2-3.8-0.1-5.6h-0.2c-0.5,1.3-1.3,3.2-1.9,4.9l-9,22.4h-1.7L866.2,151.4z"/>
						<path class="st1" d="M923.2,169.4c-0.9,2.6-2.8,3.8-5.1,3.8c-2.4,0-4.1-1.3-4.4-4.1h-0.3c-0.7,2.4-3,4.2-6.2,4.2
							c-3.7,0-6.3-1.9-6.3-5.8c0-3.7,2.8-6,8.3-7.1l4.3-0.9v-1.2c0-3.1-1.5-4.9-4.8-4.9c-2.9,0-4.7,1.3-5.7,3.6l-1.5-0.6
							c0.8-3.5,3.6-6.7,9.1-6.7c5.3,0,8.3,3,8.3,8.8v9c0,1.4,0.5,2.2,1.6,2.2c0.8,0,1.3-0.4,1.7-1L923.2,169.4z M913.5,167.4v-6
							l-2.1,0.4c-3,0.6-4.9,2.1-4.9,4.8c0,2.3,1.3,3.7,3.4,3.7C911.6,170.2,912.8,169.2,913.5,167.4z"/>
						<path class="st1" d="M924.5,162c0-6.5,4.2-12.2,11.6-12.2c2.5,0,4.6,0.4,6.9,1.4v6.5h-1.8c-0.8-3.3-2.7-5-6-5
							c-3.9,0-6.1,2.8-6.1,7.1c0,5.3,3.1,8.7,7.9,8.7c2.8,0,4.5-1.2,5.5-2.9l1.4,0.7c-0.9,3.8-3.8,7.1-8.9,7.1
							C928.7,173.3,924.5,168.7,924.5,162z"/>
						<path class="st1" d="M968.5,169.4c-0.9,2.6-2.8,3.8-5.1,3.8c-2.4,0-4.1-1.3-4.4-4.1h-0.3c-0.7,2.4-3,4.2-6.2,4.2
							c-3.7,0-6.3-1.9-6.3-5.8c0-3.7,2.8-6,8.3-7.1l4.3-0.9v-1.2c0-3.1-1.5-4.9-4.8-4.9c-2.9,0-4.7,1.3-5.7,3.6l-1.5-0.6
							c0.8-3.5,3.6-6.7,9.1-6.7c5.3,0,8.3,3,8.3,8.8v9c0,1.4,0.5,2.2,1.6,2.2c0.8,0,1.3-0.4,1.7-1L968.5,169.4z M958.8,167.4v-6
							l-2.1,0.4c-3,0.6-4.9,2.1-4.9,4.8c0,2.3,1.3,3.7,3.4,3.7C956.9,170.2,958.1,169.2,958.8,167.4z"/>
						<path class="st1" d="M993.9,172.8h-8.4V171c0-1.4,0.2-2.4,0.6-3.6l-0.3,0c-1.2,3.9-4.4,6-7.6,6c-4.1,0-7-2.4-7-7.3v-10.6
							c0-2.1-0.9-2.3-3.5-2.3v-1.6l7.6-1.2h1.3v14.6c0,2.7,0.9,4.7,4.1,4.7c1.9,0,3.8-1.1,4.4-2.8v-11.3c0-2.1-0.9-2.3-3.5-2.3v-1.6
							l7.6-1.2h1.3v18.2c0,2,0.9,2.6,3.3,2.8V172.8z"/>
						<path class="st1" d="M272,204.4c-1-2.7-1.6-4.4-2-5.9h-0.2c0,1.9,0,3.7,0,5.7l-0.8,15.2c-0.2,4,0.5,4.4,4.1,4.7v1.6h-11v-1.6
							c3.6-0.4,4.2-0.9,4.4-4.8l1.1-19.4c0.1-3.2-0.9-3.9-4-4.2v-1.6h10.6l7.2,18.1c1.3,3.4,1.6,4.5,1.8,5.7h0.2
							c0.2-1.2,0.8-2.8,1.9-5.7l7.6-18.2h10.3v1.6c-3.2,0.3-4.2,1.2-4.1,4.2l1.1,19.6c0.2,3.7,1,4.2,4.4,4.6v1.6h-14v-1.6
							c3.4-0.3,4.1-0.9,4-4.6l-0.8-15.2c-0.1-1.9-0.2-3.8-0.1-5.6h-0.2c-0.5,1.3-1.3,3.2-1.9,4.9l-9,22.4h-1.7L272,204.4z"/>
						<path class="st1" d="M329.9,222.4c-0.9,2.6-2.8,3.8-5.1,3.8c-2.4,0-4.1-1.3-4.4-4.1h-0.3c-0.7,2.4-3,4.2-6.2,4.2
							c-3.7,0-6.3-1.9-6.3-5.8c0-3.7,2.8-6,8.3-7.1l4.3-0.9v-1.2c0-3.1-1.5-4.9-4.8-4.9c-2.9,0-4.7,1.3-5.7,3.6l-1.5-0.6
							c0.8-3.5,3.6-6.7,9.1-6.7c5.3,0,8.3,3,8.3,8.8v9c0,1.4,0.5,2.2,1.6,2.2c0.8,0,1.3-0.4,1.7-1L329.9,222.4z M320.2,220.4v-6
							l-2.1,0.4c-3,0.6-4.9,2.1-4.9,4.8c0,2.3,1.3,3.7,3.4,3.7C318.3,223.2,319.5,222.3,320.2,220.4z"/>
						<path class="st1" d="M331.2,215c0-6.5,4.2-12.2,11.6-12.2c2.5,0,4.6,0.4,6.9,1.4v6.5h-1.8c-0.8-3.3-2.7-5-6-5
							c-3.9,0-6.1,2.8-6.1,7.1c0,5.3,3.1,8.7,7.9,8.7c2.8,0,4.5-1.2,5.5-2.9l1.4,0.7c-0.9,3.8-3.8,7.1-8.9,7.1
							C335.4,226.3,331.2,221.7,331.2,215z"/>
						<path class="st1" d="M376.1,222.4c-0.9,2.6-2.8,3.8-5.1,3.8c-2.4,0-4.1-1.3-4.4-4.1h-0.3c-0.7,2.4-3,4.2-6.2,4.2
							c-3.7,0-6.3-1.9-6.3-5.8c0-3.7,2.8-6,8.3-7.1l4.3-0.9v-1.2c0-3.1-1.5-4.9-4.8-4.9c-2.9,0-4.7,1.3-5.7,3.6l-1.5-0.6
							c0.8-3.5,3.6-6.7,9.1-6.7c5.3,0,8.3,3,8.3,8.8v9c0,1.4,0.5,2.2,1.6,2.2c0.8,0,1.3-0.4,1.7-1L376.1,222.4z M366.4,220.4v-6
							l-2.1,0.4c-3,0.6-4.9,2.1-4.9,4.8c0,2.3,1.3,3.7,3.4,3.7C364.5,223.2,365.7,222.3,366.4,220.4z"/>
						<path class="st1" d="M377.4,214.6c0-7,5-11.8,11.6-11.8c6.6,0,11.5,4.8,11.5,11.8c0,7-4.9,11.7-11.5,11.7
							C382.4,226.3,377.4,221.5,377.4,214.6z M394.5,214.6c0-6.6-1.9-9.7-5.5-9.7c-3.7,0-5.5,3-5.5,9.7c0,6.6,1.9,9.6,5.5,9.6
							C392.7,224.2,394.5,221.2,394.5,214.6z"/>
						<path class="st1" d="M414.5,224.2c3.5-0.3,4.4-1.2,4.4-5.1v-18.1c0-4-0.9-4.8-4.4-5.1v-1.6h14.7c6.2,0,11.4,2.5,11.4,8.6
							c0,6.1-5.2,9-11.6,9h-4.2v7.2c0,4.2,1.1,4.9,5.6,5.1v1.6h-15.8V224.2z M427.9,209.9c4.2,0,6.5-2.6,6.5-7.1
							c0-4.2-1.9-6.6-6.2-6.6h-3.4v13.8H427.9z"/>
						<path class="st1" d="M443.2,214.6c0-7,5-11.8,11.6-11.8c6.6,0,11.5,4.8,11.5,11.8c0,7-4.9,11.7-11.5,11.7
							C448.2,226.3,443.2,221.5,443.2,214.6z M460.3,214.6c0-6.6-1.9-9.7-5.5-9.7c-3.7,0-5.5,3-5.5,9.7c0,6.6,1.9,9.6,5.5,9.6
							C458.4,224.2,460.3,221.2,460.3,214.6z"/>
						<path class="st1" d="M481.6,225.8h-12.5v-1.6c2.8-0.2,3.5-0.7,3.5-3.1v-23.9c0-1.9-0.5-2.5-1.9-2.5c-0.5,0-1,0-1.7,0.1v-1.4
							l7.4-1.9h1.6V221c0,2.5,0.9,2.9,3.5,3.2V225.8z"/>
						<path class="st1" d="M482.9,235.7V230h1.3c1.2,1,2.9,1.3,4.2,1.3c2.3,0,4.2-0.9,5.5-2.8l0.5-0.8l-8.9-20.4
							c-0.9-2.2-1.3-2.4-2.6-2.4v-1.6h12v1.6c-2.3,0-3.3,0.8-3.3,2c0,0.5,0.1,0.9,0.4,1.4l4.1,10.1c0.4,1,0.7,2.2,0.7,3.5h0.2
							c0.1-1,0.4-1.9,0.8-2.9l4.1-10.3c0.2-0.6,0.4-1.2,0.4-1.7c0-1.4-1.2-2.2-3.3-2.2v-1.6h8.8v1.6c-1.3,0-2,0.9-2.7,2.4l-9.2,22
							c-2.5,6-5.9,7.2-9.2,7.2C485.5,236.5,483.9,236.3,482.9,235.7z"/>
						<path class="st1" d="M512,220v-14.2h-3.7v-1.3c3.6-1.6,5.9-4,7.9-7h1.2v5.9h6v2.4h-6v12.8c0,3.1,1.6,4.2,3.5,4.2
							c1.2,0,2.2-0.5,2.9-1l0.9,1.2c-1.7,1.9-4.2,3.4-6.9,3.4C513.9,226.3,512,224.1,512,220z"/>
						<path class="st1" d="M544.8,218.6l1.4,0.7c-0.9,3.3-3.7,7-9.1,7c-6.4,0-10.3-4.7-10.3-11.3c0-7.1,3.8-12.3,10.3-12.3
							c5.6,0,9.1,3.7,9.1,10.2h-14.9c0.4,5.6,3.2,8.6,7.6,8.6C541.9,221.5,543.6,220.5,544.8,218.6z M531.3,210.9h8.8
							c0-3.6-1-6.1-4-6.1C533.2,204.8,531.5,207,531.3,210.9z"/>
						<path class="st1" d="M549.7,215c0-6.5,4.2-12.2,11.6-12.2c2.5,0,4.6,0.4,6.9,1.4v6.5h-1.8c-0.8-3.3-2.7-5-6-5
							c-3.9,0-6.1,2.8-6.1,7.1c0,5.3,3.1,8.7,7.9,8.7c2.8,0,4.5-1.2,5.5-2.9l1.4,0.7c-0.9,3.8-3.8,7.1-8.9,7.1
							C553.9,226.3,549.7,221.7,549.7,215z"/>
						<path class="st1" d="M571.5,224.2c2.8-0.3,3.5-0.8,3.5-3.1v-23.9c0-1.9-0.5-2.5-2-2.5c-0.5,0-0.9,0-1.5,0.1v-1.4l7.4-1.9h1.6
							v10.9c0,2.8-0.5,4.7-1,6.3l0.3,0.1c1.2-3.8,4-6.1,7.9-6.1c4.1,0,7,2.2,7,7.7V221c0,2.5,0.9,2.9,3.5,3.2v1.6h-11.6v-1.6
							c2.1-0.3,2.7-0.9,2.7-2.7v-10.3c0-3.3-1.6-4.7-4.1-4.7c-2.5,0-3.9,1-4.7,2.8v11.9c0,2.4,0.6,2.8,2.7,3.1v1.6h-11.6V224.2z"/>
						<path class="st1" d="M627.2,225.8h-11.6v-1.6c2-0.2,2.7-0.9,2.7-2.7v-10.2c0-3.3-1.5-4.8-4.2-4.8c-2.2,0-3.8,0.9-4.7,2.9v11.7
							c0,2.4,0.6,2.9,2.7,3.1v1.6h-11.6v-1.6c2.8-0.2,3.6-0.7,3.6-3.1v-12.6c0-1.1-0.9-1.6-2-1.6c-0.4,0-1,0-1.8,0.1v-1.5l6.9-2.2
							h1.7v2.6c0,0.9-0.2,1.8-0.5,3l0.3,0.1c1.3-3.9,4-6.2,8-6.2c4.1,0,7,2.2,7,7.7V221c0,2.5,0.9,3,3.6,3.2V225.8z"/>
						<path class="st1" d="M641.9,225.8h-12.5v-1.6c2.8-0.2,3.5-0.7,3.5-3.1v-12c0-1.6-0.6-2.3-2.1-2.3c-0.5,0-1,0-1.7,0.1v-1.6
							l7.4-2.1h1.8V221c0,2.5,0.9,3,3.6,3.2V225.8z M631.9,196.7c0-1.9,1.5-3.5,3.5-3.5c2,0,3.5,1.5,3.5,3.5c0,2-1.5,3.5-3.5,3.5
							C633.4,200.2,631.9,198.7,631.9,196.7z"/>
						<path class="st1" d="M643.6,215c0-6.5,4.2-12.2,11.6-12.2c2.5,0,4.6,0.4,6.9,1.4v6.5h-1.8c-0.8-3.3-2.7-5-6-5
							c-3.9,0-6.1,2.8-6.1,7.1c0,5.3,3.1,8.7,7.9,8.7c2.8,0,4.5-1.2,5.5-2.9l1.4,0.7c-0.9,3.8-3.8,7.1-8.9,7.1
							C647.8,226.3,643.6,221.7,643.6,215z"/>
						<path class="st1" d="M679.5,213.9v-13c0-4-0.9-4.8-4.4-5.1v-1.6h14.9v1.6c-3.6,0.3-4.4,1.1-4.4,5.1v12.8
							c0,6.3,3.1,9.3,8.3,9.3c5.1,0,7.9-3.1,7.9-9.6v-12.6c0-4-0.9-4.8-4.3-5.1v-1.6h11.6v1.6c-3.5,0.3-4.3,1-4.3,4.6v13.3
							c0,8-4.4,12.9-12.4,12.9C684.2,226.5,679.5,222,679.5,213.9z"/>
						<path class="st1" d="M737.4,225.8h-11.6v-1.6c2-0.2,2.7-0.9,2.7-2.7v-10.2c0-3.3-1.5-4.8-4.2-4.8c-2.2,0-3.8,0.9-4.7,2.9v11.7
							c0,2.4,0.6,2.9,2.7,3.1v1.6h-11.6v-1.6c2.8-0.2,3.6-0.7,3.6-3.1v-12.6c0-1.1-0.9-1.6-2-1.6c-0.4,0-1,0-1.8,0.1v-1.5l6.9-2.2
							h1.7v2.6c0,0.9-0.2,1.8-0.5,3l0.3,0.1c1.3-3.9,4-6.2,8-6.2c4.1,0,7,2.2,7,7.7V221c0,2.5,0.9,3,3.6,3.2V225.8z"/>
						<path class="st1" d="M752.1,225.8h-12.5v-1.6c2.8-0.2,3.5-0.7,3.5-3.1v-12c0-1.6-0.6-2.3-2.1-2.3c-0.5,0-1,0-1.7,0.1v-1.6
							l7.4-2.1h1.8V221c0,2.5,0.9,3,3.6,3.2V225.8z M742.2,196.7c0-1.9,1.5-3.5,3.5-3.5c2,0,3.5,1.5,3.5,3.5c0,2-1.5,3.5-3.5,3.5
							C743.7,200.2,742.2,198.7,742.2,196.7z"/>
						<path class="st1" d="M755.9,207c-0.8-1.8-1.2-2-2.7-2.1v-1.6h12v1.6c-2.2,0-3.3,0.4-3.3,1.7c0,0.4,0.1,0.9,0.4,1.6l3.6,8.3
							c0.5,1.3,0.8,2.5,0.9,3.9h0.3c0.1-1.2,0.4-2.1,1-3.3l4.2-8.8c0.3-0.6,0.4-1.2,0.4-1.6c0-1.2-1.2-1.7-3.5-1.7v-1.6h8.7v1.6
							c-1.2,0-1.8,0.5-2.5,2.1l-8.7,19h-1.9L755.9,207z"/>
						<path class="st1" d="M797.8,218.6l1.4,0.7c-0.9,3.3-3.7,7-9.1,7c-6.4,0-10.3-4.7-10.3-11.3c0-7.1,3.8-12.3,10.3-12.3
							c5.6,0,9.1,3.7,9.1,10.2h-14.9c0.4,5.6,3.2,8.6,7.6,8.6C794.8,221.5,796.6,220.5,797.8,218.6z M784.3,210.9h8.8
							c0-3.6-1-6.1-4-6.1C786.2,204.8,784.4,207,784.3,210.9z"/>
						<path class="st1" d="M819.3,202.9v5.9h-1c-0.5-0.3-1.2-0.5-2.1-0.5c-2.4,0-4.8,1.1-4.8,5.1v7.6c0,2.6,1.2,3,4.7,3.2v1.6h-13.6
							v-1.6c2.8-0.2,3.5-0.7,3.5-3.1v-12.2c0-1.4-0.6-1.9-2.1-1.9c-0.4,0-1.1,0-1.7,0.1v-1.5l6.9-2.2h1.7v4.1c0,1.7-0.1,3.7-0.2,4.8
							l0.3,0l0.5-2.9c0.7-4.4,3.4-6.6,6.6-6.6C818.4,202.8,818.9,202.8,819.3,202.9z"/>
						<path class="st1" d="M821.7,224.1v-5.7h1.8c0.8,3.7,3.5,5.6,6.5,5.6c2.3,0,4.1-1,4.1-3.1c0-1.5-0.8-2.4-2.7-3.1l-4.4-1.6
							c-3.1-1-5.3-3.1-5.3-6.4c0-4.4,3.7-7,8.8-7c2.3,0,5.2,0.7,6.9,1.5v5.1h-1.8c-0.8-2.8-3-4.6-5.9-4.6c-2.3,0-3.7,1.1-3.7,2.8
							c0,1.5,0.7,2.5,2.6,3.2l5.1,1.9c2.9,1.1,4.6,3,4.6,6.2c0,4.6-3.6,7.4-9.1,7.4C826.9,226.4,824,225.8,821.7,224.1z"/>
						<path class="st1" d="M853.9,225.8h-12.5v-1.6c2.8-0.2,3.5-0.7,3.5-3.1v-12c0-1.6-0.6-2.3-2.1-2.3c-0.5,0-1,0-1.7,0.1v-1.6
							l7.4-2.1h1.8V221c0,2.5,0.9,3,3.6,3.2V225.8z M844,196.7c0-1.9,1.5-3.5,3.5-3.5c2,0,3.5,1.5,3.5,3.5c0,2-1.5,3.5-3.5,3.5
							C845.5,200.2,844,198.7,844,196.7z"/>
						<path class="st1" d="M858.9,220v-14.2h-3.7v-1.3c3.6-1.6,5.9-4,7.9-7h1.2v5.9h6v2.4h-6v12.8c0,3.1,1.6,4.2,3.5,4.2
							c1.2,0,2.2-0.5,2.9-1l0.9,1.2c-1.7,1.9-4.2,3.4-6.9,3.4C860.8,226.3,858.9,224.1,858.9,220z"/>
						<path class="st1" d="M872.2,235.7V230h1.3c1.2,1,2.9,1.3,4.2,1.3c2.3,0,4.2-0.9,5.5-2.8l0.5-0.8l-8.9-20.4
							c-0.9-2.2-1.3-2.4-2.6-2.4v-1.6h12v1.6c-2.3,0-3.3,0.8-3.3,2c0,0.5,0.1,0.9,0.4,1.4l4.1,10.1c0.4,1,0.7,2.2,0.7,3.5h0.2
							c0.1-1,0.4-1.9,0.8-2.9l4.1-10.3c0.2-0.6,0.4-1.2,0.4-1.7c0-1.4-1.2-2.2-3.3-2.2v-1.6h8.8v1.6c-1.3,0-2,0.9-2.7,2.4l-9.2,22
							c-2.5,6-5.9,7.2-9.2,7.2C874.8,236.5,873.3,236.3,872.2,235.7z"/>
					</g>
				</g>
				<g>
					<path class="st1" d="M670.4,140.1v-0.5c-0.1-0.5-0.6-0.5-0.6-0.5h0h-3.1c-0.3,0-0.6,0.2-0.8,0.5c-0.2,0.4-0.3,0.7-0.5,1.1
						c-0.3,0.8-0.7,1.5-1,2.3c-0.3,0.7-0.6,1.4-0.9,2.1c-0.1,0.1-0.1,0.2-0.2,0.3c-0.1,0.2-0.2,0.4,0,0.6c0.1,0.1,0.2,0.1,0.3,0.1
						c0,0,1.3,0,1.3,0c0.2,0,0.5-0.1,0.6-0.3l4.7-5.1l0,0C670.2,140.7,670.4,140.6,670.4,140.1z"/>
				</g>
			</g>
		</g>
	</g>
	<g>
		<path class="st1" d="M272.3,98.7c0.8-3.5,5.2-19.2,7.6-27.6l-1.1-0.3c-10.9,27.6-10.9,27.6-12.1,30.1c-0.7,1.4-0.9,1.4-1.8,1.4
			H262v1.4c1.4,0.1,2.4,0.3,3.3,1c2,1.3,1.5,6.1,1.4,8c-0.1,2.5-2.2,9.3,2.4,9.3c2.7,0,4.5-2.1,4.7-5.2c0.2-5.8-2.2-8.5-2.3-11.8
			C271.3,103.2,271.7,100.9,272.3,98.7z"/>
		<path class="st1" d="M271.7,70.6c5.9,4.2,11.1-7.5-5.6-10.1l-0.6,0.5C268.1,63.3,270.9,67.1,271.7,70.6z"/>
		<path class="st1" d="M261.4,75.9l-0.6,0.5c2.5,2.1,5.4,5.7,6.2,8.9C272.9,89,277.4,77.4,261.4,75.9z"/>
		<path class="st1" d="M324.2,104.5c-1.7-1.7-4.2-3.8-5.6-5v-1.6v-14V69.8c1.5-0.3,2.2-0.7,2.7-1.3l-5.9-4.6l-3,3.4h-15
			c0.8-0.7,1.7-1.5,2.5-2.2l0.2-0.2c0.8-0.7,1.6-1.4,2.2-2c0,0,0,0,0,0l1.8-1.6l-7.7-1.5c-0.5,2.3-1.3,5.4-1.8,7.6h-7.2l-6.5-2.6
			v20.6v15.8v0h5.7v-1.6v-3l0.3,0.6c3.7-2,7.1-4.3,9.8-7V96h5.3v-8.9c1.1,1,2.1,2.2,3,3.4c0.4,0.6,0.8,1.3,1.1,1.9
			c0.6,1.2,0.9,2.3,2.5,2.3c1.3,0,2.4-1.1,2.4-2.4c0-2-2.1-4.7-8.9-6.3v-1.6h8.2c1.1,0,1.9-0.1,2.4-0.5v15.7h3.9l-2.8,3.8h-12.6
			c0.3-1,0.5-2.1,0.7-3.1c1.5-0.1,2.3-0.7,2.5-1.6l-9-1.4c-0.1,2.1-0.4,4.1-0.9,6.2h-18.1l0.5,1.9h16.9c-2.2,6.3-7.4,11.9-18.4,15.7
			l0.4,0.9c15.3-3.3,21.7-9.3,24.6-16.5h0.9c1.9,5.6,6.4,12.8,17.9,16.5c0.3-3.4,1.9-4.5,4.9-5.1l0.1-0.8
			c-12.6-2.4-19-6.4-21.5-10.5h19.8C323.3,105.6,324,105.2,324.2,104.5z M286.6,95.6V85.2V84l0.1,0.5h7.9
			C292.8,88.6,290.1,92.5,286.6,95.6z M287.6,74.9l0.3,1.2c2.9-0.1,6-0.5,8.9-0.9v7.9h-10.2V69.2h18.5
			C300.9,71.3,293.7,73.7,287.6,74.9z M312.7,70.6v12.3l-4.2-2.9l-2.5,3.2h-4v-8.8c0.9-0.2,1.7-0.3,2.5-0.5l5.9-1.4l-3.8-3.3h6V70.6
			z"/>
		<path class="st1" d="M362.4,64.8H352l-6.6-2.9v44.3V122h1.1h5.2v-2.4v-13.4V86.2H363V90v0h0.9c0.1,0,0.1,0,0.2,0h4.9v-1.7V74.2
			v-6.6c1.1-0.2,2.1-0.7,2.5-1.2l-6.2-4.7L362.4,64.8z M363,84.3h-11.3v-8H363V84.3z M363,74.2v0.2h-11.3v-7.6H363V74.2z"/>
		<path class="st1" d="M393.1,64.8h-10.8l-6.4-2.6v12v15.6V90h6.1v-2.2v-1.6h11.7V113c0,1.1-0.4,1.6-1.8,1.6c-1.7,0-11-0.6-11-0.6
			v0.9c4,0.6,6,1.4,7.4,2.4c1.3,1,1.8,2.5,2.1,4.5c8.7-0.8,9.8-3.6,9.8-8.2v-46c1.3-0.3,2.3-0.8,2.7-1.4l-6.8-5.2L393.1,64.8z
			 M393.7,84.3H382v-8h11.7V84.3z M393.7,74.4H382v-0.2v-7.4h11.7V74.4z"/>
		<path class="st1" d="M475,117.7h-8.8v-11.9H481c0.9,0,1.6-0.3,1.7-1.1c-2.3-2.4-6.4-5.7-6.4-5.7l-3.6,4.8h-6.5V93.5h8.4v2.9v0.1
			h6.2v-2c0,0,0.1-0.1,0.1-0.1V68c1.3-0.3,2.3-0.9,2.7-1.4l-6.6-5l-3.1,3.3h-21.5l-6.6-2.7v4.9c-2.4-2.3-6-5.1-6-5.1l-3.6,4.8H422
			l0.5,1.9h7.4v16.4h-7.8l0.5,1.9h7.2V106c-3.8,1.1-6.9,2.1-8.7,2.5l2.7,6.6l1.8-1c0,0,0,0,0,0c0.2-0.1,0.5-0.3,0.7-0.4l19.6-11.7
			l-0.3-0.9c-3.3,1.1-6.6,2.1-9.6,3.1V87.2h7.6c0.9,0,1.6-0.3,1.7-1.1c-1.9-2.2-5.4-5.5-5.4-5.5l-3.1,4.6H436V68.8h8.7
			c0.5,0,0.9-0.1,1.2-0.3v22v7.3v0.2h6.2v-2.4v-2.2h7.9v10.4h-14.4l0.5,1.9H460v11.9h-20.7l0.5,1.9h43.9c0.9,0,1.7-0.3,1.8-1.1
			c-2.5-2.5-6.8-6.2-6.8-6.2L475,117.7z M466.3,66.8h8.4v11.4h-8.4V66.8z M466.3,80.2h8.4v8.7v2.7h-8.4V80.2z M460,91.6h-7.9v-1
			V80.2h7.9V91.6z M460,78.3h-7.9V66.8h7.9V78.3z"/>
		<path class="st1" d="M552.6,114.6h-15.9V72.1h21.8c1,0,1.7-0.3,1.9-1.1c-3-2.6-7.8-6.3-7.8-6.3l-4.2,5.4h-41.6l0.5,1.9h22.4v42.5
			h-27.4l0.6,1.9h59.8c1,0,1.7-0.3,1.9-1.1c-2.9-2.6-7.8-6.2-7.8-6.2L552.6,114.6z"/>
		<path class="st1" d="M616.4,81.8h26.5c0.9,0,1.7-0.3,1.9-1.1c-2.9-2.6-7.9-6.4-7.9-6.4l-4.3,5.5h-16.9c0.5-5.4,0.5-11.1,0.7-16.9
			c1.6-0.3,2.2-0.9,2.4-1.9l-9.5-0.9c0,6.9,0.1,13.5-0.5,19.8h-25.6l0.6,1.9h24.8c-1.5,15.1-7,28.3-26.1,39.2l0.7,1.1
			c23.7-9.8,30.1-23.5,32-39.3c1.9,13.3,7.1,29.6,23.9,39.3c0.7-3.6,2.8-5.4,6.2-6l0.1-0.7C626.2,107.2,618.7,94.3,616.4,81.8z"/>
		<path class="st1" d="M701.1,75.2c1.1,0.3,1.9,0.1,2.2-0.5l-5.7-2.7c-0.7,1.3-1.6,2.7-2.7,4c-1.5-0.6-3.4-1.1-5.8-1.4l-0.6,0.7
			c1.3,0.7,2.9,1.9,4.3,3.1c-1.9,1.9-4.2,3.7-6.5,5.1l0.7,1c2.7-0.9,5.6-2.3,8-4c0.9,1.1,1.7,2.1,2.1,3c3.1,1.4,4.8-2.3,1.1-5.5
			C699.4,77.1,700.3,76.1,701.1,75.2z"/>
		<path class="st1" d="M713,104.1h-15.9v-2.6c4-1.3,10.3-4.5,13.4-5.8c1.4-0.1,2.1-0.3,2.7-0.7l-6.3-5.6l-3.7,3.5h-27l0.6,1.9H702
			c-1.7,1.5-3.7,3.3-5.8,4.7L691,99v5.1h-26.8l0.5,1.9H691v7.6c0,0.9-0.3,1.2-1.4,1.2c-1.5,0-8.9-0.5-8.9-0.5v0.9
			c3.3,0.5,4.9,1.3,6,2.2c1.1,1.1,1.4,2.5,1.7,4.5c7.8-0.7,8.8-3.4,8.8-8.1v-8h24.6c0.9,0,1.5-0.3,1.7-1.1c-2.5-2.4-6.8-5.8-6.8-5.8
			L713,104.1z"/>
		<path class="st1" d="M667.8,94.9c2.8-1.3,3.9-4.2,3.5-8h44.1c-0.7,2-1.6,4.5-2.2,6l0.7,0.5c2.6-1.3,6.4-3.6,8.6-5.2
			c1.3-0.1,2.1-0.2,2.5-0.7l-6.2-5.9l-3.5,3.5h-0.3l1-18.5c1.2-0.2,1.8-0.4,2.3-0.9l-6-4.7l-2.6,3.1h-7.6l0.6,1.9h7.5L710,71h-7.2
			l0.6,1.9h6.5l-0.3,5.2h-7l0.6,1.9h6.3l-0.3,5h-31l-0.1-5h7.6c0.9,0,1.5-0.3,1.7-1.1c-1.7-1.7-4.3-3.9-4.3-3.9l-2.4,3.1h-2.6
			l-0.2-5.2h7.6c0.9,0,1.5-0.3,1.7-1l0.4,0.5c2.4-1,4.9-2.4,7.1-3.9c0.9,0.9,1.7,1.8,2.3,2.6c2.9,1.1,4.3-2.3,0.8-5
			c0.9-0.8,1.7-1.6,2.3-2.4c1.1,0.3,1.9,0.1,2.2-0.5l-5.6-2.9c-0.7,1.3-1.5,2.6-2.5,3.9c-1.4-0.5-3.1-0.8-5.2-1l-0.6,0.7
			c1.2,0.7,2.6,1.5,3.9,2.5c-1.7,1.8-3.5,3.5-5.4,4.9l0.2,0.3c-1.7-1.6-4.1-3.6-4.1-3.6l-2.3,2.9h-2.7l-0.2-5.1
			c3.3-0.5,6.8-1.3,8.7-1.9c1,0.3,1.7,0.3,2-0.1l-5.3-4.1c-1.3,1.1-3.5,2.6-5.6,4l-5.6-1.2l0.8,22.4H671c-0.2-1.2-0.6-2.5-1.1-3.7
			l-0.9,0.1c0,3.9-2.1,6.6-3.7,7.6C660.3,91.6,663.4,96.9,667.8,94.9z"/>
		<path class="st1" d="M292.8,82.6c1.2,0,2.3-1,2.3-2.2c0-1.4-1.2-3.1-5.1-4.3l-0.7,0.4c1.1,1.3,1.8,3.4,1.6,5.2
			C291.5,82.3,292.1,82.6,292.8,82.6z"/>
		<path class="st1" d="M302.5,82.1l1.1,0.6c1.5-1.1,3.4-3.1,4.8-4.8c1.5,0.2,2-0.1,2.3-0.8l-5.5-2.1
			C304.3,77.7,303.3,80.4,302.5,82.1z"/>
	</g>
	<g>
		<path class="st2" d="M107.7,27.4C107.7,27.4,107.6,27.4,107.7,27.4c2.5-1.8,3.1-7.8,2.4-9v0c1.3,0.9,9.4,0,9.5-3.8
			c0-3.7-8.1-4.7-9.5-3.8v0c0.9-1.3,0-9.4-3.8-9.4c-3.7,0-4.7,8.1-3.8,9.4v0c-1.3-0.9-9.4,0-9.5,3.8c0,3.7,8.1,4.7,9.5,3.8v0
			c-0.7,1.1-0.2,7.2,2.4,8.9v0c0,0-6,19.4-16.5,24.4c1.8-0.8,17.9,1.4,17.9,1.4s16.1-2.3,17.9-1.4C113.6,46.8,107.7,27.4,107.7,27.4
			z"/>
		<path class="st3" d="M106.2,226.9c49.1,0,89-39.6,89-88.5c0-48.9-39.8-88.5-89-88.5c-49.1,0-88.9,39.6-88.9,88.5
			C17.3,187.3,57.1,226.9,106.2,226.9z"/>
		<path class="st3" d="M106.2,226.9c49.1,0,89-39.6,89-88.5c0-48.9-39.8-88.5-89-88.5c-49.1,0-88.9,39.6-88.9,88.5
			C17.3,187.3,57.1,226.9,106.2,226.9z"/>
		<path class="st3" d="M106.2,226.7c49.3,0,89.2-39.6,89.2-88.5c0-48.9-39.9-88.5-89.2-88.5C57,49.7,17,89.3,17,138.2
			C17,187,57,226.7,106.2,226.7z"/>
		<g>
			<defs>
				<path id="SVGID_1_" d="M106.2,212.2c41.2,0,74.6-33.1,74.6-74c0-40.9-33.4-74-74.6-74c-41.2,0-74.6,33.2-74.6,74
					C31.6,179.1,65,212.2,106.2,212.2z"/>
			</defs>
			<use xlink:href="#SVGID_1_"  style="overflow:visible;fill:#FFFFFF;"/>
			<clipPath id="SVGID_00000116928482155328018750000012476099817318731171_">
				<use xlink:href="#SVGID_1_"  style="overflow:visible;"/>
			</clipPath>
			<g style="clip-path:url(#SVGID_00000116928482155328018750000012476099817318731171_);">
				<polygon class="st5" points="76.4,66.7 76.4,66.7 76.2,66.8 76,66.9 76,66.9 60.7,73.2 81.8,103.4 83,102.9 65.4,76.1 79,76.6 
					89.2,100.4 89.9,100.1 90.3,99.9 91,99.6 81.2,75.7 90.5,65.8 97.2,97.1 98.4,96.6 91.8,60.5 				"/>
				<polygon class="st5" points="34,108.4 34,108.4 33.9,108.7 33.8,108.9 33.8,108.9 27.5,124.1 64.1,130.7 64.5,129.5 32.9,122.8 
					42.9,113.6 67.1,123.3 67.4,122.7 67.6,122.2 67.9,121.5 43.8,111.5 43.3,98 70.5,115.4 71,114.2 40.4,93.3 				"/>
				<polygon class="st5" points="33.9,167.6 33.9,167.6 34,167.8 34.1,168.1 34.1,168.1 40.5,183.2 71,162.3 70.5,161.1 43.4,178.5 
					43.9,165 68,155 67.7,154.3 67.5,153.9 67.2,153.2 43,162.9 33,153.7 64.6,147.1 64.1,145.9 27.6,152.5 				"/>
				<polygon class="st5" points="76.1,209.5 76.1,209.5 76.4,209.6 76.6,209.7 76.6,209.7 91.9,215.9 98.6,179.8 97.4,179.4 
					90.7,210.6 81.4,200.7 91.2,176.8 90.5,176.5 90,176.3 89.4,176.1 79.2,199.8 65.6,200.3 83.2,173.5 82,173 60.9,203.2 				"/>
				<polygon class="st5" points="136,209.6 136,209.6 136.2,209.5 136.5,209.4 136.5,209.4 151.8,203.1 130.7,173 129.5,173.4 
					147.1,200.3 133.4,199.8 123.3,176 122.6,176.3 122.1,176.5 121.4,176.7 131.3,200.6 122,210.5 115.2,179.3 114,179.8 
					120.7,215.9 				"/>
				<polygon class="st5" points="178.4,167.9 178.4,167.9 178.5,167.7 178.6,167.4 178.6,167.4 184.9,152.3 148.4,145.7 
					147.9,146.9 179.5,153.5 169.5,162.7 145.3,153 145,153.7 144.8,154.2 144.5,154.8 168.6,164.8 169.1,178.3 142,161 
					141.5,162.1 172,183 				"/>
				<polygon class="st5" points="178.5,108.7 178.5,108.7 178.4,108.5 178.3,108.3 178.3,108.3 172,93.2 141.4,114 141.9,115.2 
					169,97.8 168.5,111.3 144.5,121.3 144.8,122 145,122.5 145.2,123.2 169.4,113.4 179.4,122.6 147.8,129.3 148.3,130.5 
					184.8,123.9 				"/>
				<polygon class="st5" points="136.3,66.8 136.3,66.8 136,66.7 135.8,66.6 135.8,66.6 120.5,60.4 113.8,96.5 115,97 121.8,65.7 
					131.1,75.6 121.2,99.5 121.9,99.8 122.4,100 123.1,100.3 133.2,76.5 146.9,76 129.3,102.8 130.5,103.3 151.6,73.1 				"/>
			</g>
		</g>
		<path class="st2" d="M218.6,138.2c0-1.6-1.9-3.7-2.2-3c-0.5,1.1-2.7,2.5-2.7,2.5h-5.2c0-1.2-0.2-2.4-0.5-3.4
			c1.6-0.5,3.4-1.3,4.6-2c1.5-0.8,2.4-0.4,2.4-0.4c0.3,0.2-0.4,0.8-0.5,1.1c-0.3,0.7-0.1,0.9,0.5,0.7c0.1-0.1,1.9-1,1.6-1.7
			c-0.4-1-2.5-1.4-3.5-1.5c-2.9-0.2-4.9,1.8-5.6,2c0,0-0.1,0-0.1,0c-0.7-1.4-1.5-2.3-2.5-2.3c-0.8,0-1.5,0.5-2,1.4
			c-0.2-0.7-0.2-1.3-0.3-1.3c-2-0.3-3.2,2.4-1.5,3.5c0.2,0.1,0.5,0.3,0.7,0.4c-0.3,1-0.4,2.2-0.5,3.5h-6v1.2h6
			c0,1.3,0.2,2.4,0.5,3.5c-0.3,0.1-0.5,0.2-0.7,0.4c-1.7,1.1-0.5,3.8,1.5,3.5c0.1,0,0-0.6,0.3-1.3c0.6,0.9,1.3,1.4,2,1.4
			c1,0,1.9-0.9,2.5-2.3c0,0,0.1,0,0.1,0c0.7,0.2,2.7,2.3,5.6,2c1-0.1,3.1-0.4,3.5-1.5c0.3-0.7-1.5-1.6-1.6-1.7
			c-0.6-0.2-0.7,0-0.5,0.7c0.1,0.3,0.8,0.9,0.5,1.1c0,0-1,0.4-2.4-0.4c-1.2-0.7-3-1.5-4.6-2c0.3-1,0.4-2.1,0.5-3.4h5.2
			c0,0,2.2,1.4,2.7,2.5C216.6,141.9,218.5,139.8,218.6,138.2 M204.8,131.9c0.5,0,1,0.4,1.4,1c-0.9,0.1-2.1,0.3-2.1,0.3
			c-0.3-0.1-0.6-0.2-0.8-0.4C203.8,132.3,204.3,131.9,204.8,131.9z M204.8,144.9c-0.5,0-1-0.3-1.4-0.9c0.2-0.2,0.5-0.3,0.8-0.4
			c0,0,1.1,0.2,2.1,0.3C205.8,144.6,205.3,144.9,204.8,144.9z M207.1,142.1c-0.5-0.1-0.9-0.2-1.3-0.2c0,0-1.7-0.1-3.2,0.3
			c-0.3-0.9-0.5-2-0.5-3.2h5.5C207.5,140.2,207.3,141.2,207.1,142.1z M202.1,137.8c0.1-1.2,0.2-2.3,0.5-3.2c1.5,0.4,3.2,0.3,3.2,0.3
			c0.4,0,0.8-0.1,1.3-0.2c0.3,0.9,0.4,2,0.5,3.1H202.1z"/>
		<g>
			<path class="st6" d="M106.2,234.9c0.7,0,1.4-0.1,2.1-0.1c33.1-1.6,53.2-16.3,59.7-21.8c4.4-3.7,7,1.6,7.5,4.6
				c0.6,3.5-1.4,11.7-1.4,11.7s-2.3-0.8-4.7,1.1c-2.4,1.9-25.9,18.9-62.9,20c0,0-0.1,0-0.1,0l0,0c0,0-0.1,0-0.2,0
				c-37.1-1.1-60.5-18.1-62.9-20c-2.4-1.9-4.7-1.1-4.7-1.1s-2-8.2-1.4-11.7c0.5-3,3.1-8.3,7.4-4.6c6.5,5.5,26.6,20.2,59.7,21.8
				C104.8,234.9,105.5,234.9,106.2,234.9L106.2,234.9z"/>
			<path class="st0" d="M47.1,228.9l-2.1-1.3l0.1-0.2c0.3,0.2,0.6,0.4,0.8,0.1c0.1-0.1,0.2-0.5,0.2-0.6l0.2-1l-2.1-1.4l-1,0.7
				c-0.1,0.1-0.2,0.2-0.3,0.3c-0.2,0.3,0.2,0.6,0.3,0.7l-0.1,0.2l-1.6-1l0.1-0.1c0.1,0.1,0.3,0.1,0.5,0.1c0.3-0.1,1-0.5,1.3-0.8
				l4.2-2.9l0.2,0.1l-1,5.9c-0.1,0.8-0.1,0.9,0.3,1.2L47.1,228.9z M46.4,225.5l0.5-2.8l-2.4,1.6L46.4,225.5z"/>
			<path class="st0" d="M50.9,223.8l2.3,1.4c0.7,0.4,2.1,1.5,1.3,2.7c-0.6,0.9-1.4,0.6-1.8,0.5l0,0c0.6,0.6,1,1.4,0.5,2.2
				c-0.2,0.3-1.1,1.3-2.9,0.2l-2.7-1.7l0.1-0.2c0.7,0.4,0.9,0.3,1.2-0.2l2.3-3.6c0.4-0.6,0.3-0.8-0.3-1.2L50.9,223.8z M49.5,229.5
				c-0.2,0.3-0.1,0.4,0.4,0.7c0.5,0.3,1.6,0.9,2.3-0.2c0.4-0.7,0.2-1.2-0.1-1.6c-0.2-0.3-0.5-0.5-1.3-1L49.5,229.5z M51,227.2
				l0.8,0.5c0.2,0.1,1.2,0.7,1.8-0.2c0.6-1-0.1-1.7-0.7-2c-0.2-0.1-0.3-0.2-0.4-0.2c-0.2-0.1-0.2,0-0.3,0.1L51,227.2z"/>
			<path class="st0" d="M61.6,231.8l-0.2-0.1c0.3-0.8,0.2-1.8-0.7-2.3c-0.4-0.2-1-0.2-1.3,0.3c-0.7,1.2,1.9,3.1,0.9,4.7
				c-0.4,0.7-1.5,1.1-2.7,0.4c-0.6-0.4-0.8-0.9-1.1-1.1c-0.2-0.1-0.3,0-0.4,0.1l-0.2-0.1l0.8-1.9l0.2,0.1c-0.1,0.5-0.3,1.8,0.8,2.5
				c0.7,0.4,1.3,0.1,1.5-0.3c0.3-0.5,0.3-0.8-0.5-2.3c-0.5-0.9-0.8-1.6-0.3-2.4c0.6-0.9,1.6-0.9,2.3-0.5c0.5,0.3,0.8,0.8,1,1
				c0.2,0.1,0.4,0,0.5-0.1l0.2,0.1L61.6,231.8z"/>
			<path class="st0" d="M67.5,234.6c0.2-1-0.1-2-1.2-2.5c-0.4-0.2-1-0.2-1.6,0c-0.5,0.2-1.1,0.6-1.7,1.8c-0.8,1.9-0.1,3.1,1,3.6
				c1.1,0.5,2,0.1,2.4,0l0.1,0.2c0,0-1.3,0.8-2.9,0.1c-1.4-0.6-2.6-2.1-1.6-4.3c0.9-2,2.8-2.4,4.3-1.7c0.8,0.3,1.2,0.9,1.4,1
				c0,0,0.3,0.1,0.5-0.1l0.2,0.1l-0.8,2L67.5,234.6z"/>
			<path class="st0" d="M67,238.8c0.8,0.2,0.9,0.1,1.2-0.5l1.4-4c0.2-0.7,0.2-0.8-0.6-1.1l0.1-0.2l2.7,0.9l-0.1,0.2
				c-0.7-0.2-0.9-0.2-1.2,0.5l-1.4,4c-0.3,0.7-0.1,0.9,0.6,1.1l0,0.2L67,239L67,238.8z"/>
			<path class="st0" d="M75.2,241.5l-5-1.4l0.1-0.2c0.6,0.1,0.8,0.1,1-0.6l1.2-4.1c0.2-0.7,0-0.8-0.6-1.1l0-0.2l4.9,1.4l-0.3,1.3
				l-0.2-0.1c0.1-0.9-0.1-1.1-1.1-1.4l-1.3-0.3c-0.2-0.1-0.3-0.1-0.4,0.2l-0.6,2l1.4,0.4c0.8,0.2,1,0,1.3-0.6l0.2,0.1l-0.6,2.1
				l-0.2-0.1c0.1-0.8,0-0.9-0.8-1.2l-1.4-0.4l-0.6,2.3c-0.1,0.4-0.1,0.4,1.3,0.8c1.2,0.3,1.7,0.2,2.4-0.6l0.3,0.1L75.2,241.5z"/>
			<path class="st0" d="M84,237.1c-0.6-0.1-0.9-0.1-1.1,1l-1.1,4.9l-0.2,0l-3-6h0l-0.8,3.7c-0.2,1-0.1,1.2,0.6,1.4l-0.1,0.2
				l-2.2-0.5l0-0.2c0.7,0.1,1,0,1.2-1l0.9-4.1c-0.3-0.6-0.4-0.6-0.8-0.7l0-0.2l1.6,0.4l2.6,5.3l0,0l0.7-3.1c0.2-1.1,0-1.2-0.6-1.4
				l0-0.2l2.2,0.5L84,237.1z"/>
			<path class="st0" d="M87.3,243.9l-2.8-0.5l0-0.2c0.9,0.1,0.9-0.1,1.1-0.8l0.8-4.7l-0.5-0.1c-1.1-0.2-1.3,0-1.7,1l-0.2,0l0.3-1.6
				l5.4,0.9l-0.2,1.6l-0.2,0c0-1.1-0.3-1.3-1.3-1.5l-0.5-0.1l-0.8,4.8c-0.1,0.6,0,0.8,0.8,1L87.3,243.9z"/>
			<path class="st0" d="M89.2,244c0.8,0.1,1,0,1-0.7l0.6-4.2c0.1-0.7,0-0.8-0.8-1l0-0.2l2.8,0.4l0,0.2c-0.7-0.1-0.9,0-1.1,0.7
				l-0.6,4.2c-0.1,0.7,0.1,0.9,0.8,1l0,0.2l-2.8-0.4L89.2,244z"/>
			<path class="st0" d="M99.1,245.4l-2.4-0.2l0-0.2c0.4,0,0.7,0.1,0.7-0.3c0-0.1-0.1-0.5-0.1-0.6l-0.3-1l-2.5-0.2l-0.6,1.1
				c-0.1,0.1-0.1,0.3-0.1,0.4c0,0.4,0.4,0.4,0.6,0.5l0,0.2l-1.9-0.2v-0.2c0.2,0,0.3,0,0.5-0.2c0.2-0.2,0.6-0.9,0.8-1.3l2.5-4.5
				l0.2,0l1.9,5.7c0.2,0.7,0.4,0.8,0.8,0.9L99.1,245.4z M96.9,242.7l-0.8-2.7l-1.4,2.5L96.9,242.7z"/>
			<path class="st0" d="M108.9,245.5l-2.5-0.1v-0.2c0.4,0,0.7,0,0.7-0.4c0-0.2-0.1-0.5-0.2-0.6l-0.4-0.9l-2.5-0.1l-0.5,1.1
				c-0.1,0.1-0.1,0.3-0.1,0.4c0,0.4,0.5,0.4,0.6,0.4v0.2l-1.9,0l0-0.2c0.1,0,0.3,0,0.5-0.2c0.2-0.2,0.5-0.9,0.7-1.3l2.1-4.7l0.2,0
				l2.3,5.5c0.3,0.7,0.4,0.8,0.9,0.9V245.5z M106.4,243l-1.1-2.7l-1.2,2.6L106.4,243z"/>
			<path class="st0" d="M109.5,245.3c0.7-0.1,0.8-0.2,0.8-0.9l-0.1-4.3c0-0.7-0.1-0.8-0.9-0.8v-0.2l2.6-0.1c2.3-0.1,3.9,0.9,4,3.1
				c0,1.3-0.7,3.2-3.6,3.3l-2.7,0.1V245.3z M111.3,244.7c0,0.3,0.1,0.4,0.6,0.4c0.6,0,3-0.1,2.9-2.9c0-0.8-0.3-1.6-1-2.2
				c-0.5-0.4-1-0.6-2.3-0.6c-0.4,0-0.4,0.2-0.4,0.4L111.3,244.7z"/>
			<path class="st0" d="M125,238.1c-0.5,0.1-0.6,0.2-0.8,1l-1.4,5.6l-0.1,0l-3-4.9c-0.5-0.8-0.7-0.9-1.1-0.9l0-0.2l2.5-0.3l0,0.2
				c-0.5,0.1-0.7,0.1-0.7,0.4c0,0.1,0.2,0.5,0.5,1l1.9,3l1-3.7c0-0.1,0.1-0.5,0.1-0.7c0-0.4-0.4-0.4-0.8-0.4l0-0.2l2-0.2L125,238.1z
				"/>
			<path class="st0" d="M131.6,243l-5.1,1.1l0-0.2c0.6-0.2,0.8-0.3,0.7-1l-0.9-4.2c-0.2-0.7-0.4-0.8-1-0.7l0-0.2l5-1.1l0.3,1.3
				l-0.2,0.1c-0.3-0.8-0.6-0.9-1.7-0.7l-1.3,0.3c-0.2,0-0.3,0.1-0.2,0.4l0.4,2.1l1.5-0.3c0.8-0.2,0.9-0.4,0.8-1.1l0.2,0l0.5,2.2
				l-0.2,0c-0.3-0.7-0.4-0.8-1.2-0.7l-1.5,0.3l0.5,2.3c0.1,0.4,0.1,0.4,1.5,0.1c1.2-0.3,1.6-0.6,1.8-1.7l0.3-0.1L131.6,243z"/>
			<path class="st0" d="M138.7,240.9l-1.5,0.5l-3.1-2.2l-0.5,0.2l0.6,1.8c0.2,0.6,0.3,0.8,1.1,0.6l0,0.2l-2.5,0.8l-0.1-0.2
				c0.7-0.3,0.7-0.5,0.5-1.2l-1.2-4c-0.2-0.7-0.4-0.7-1.1-0.6l-0.1-0.2l2.5-0.8c0.8-0.3,2.4-0.5,2.9,0.9c0.4,1.2-0.8,1.8-1.2,2.1
				l2.6,1.7c0.3,0.2,0.6,0.3,0.9,0.2L138.7,240.9z M133.5,239.1c0.8-0.2,2.1-0.7,1.7-2c-0.4-1.2-1.6-0.9-2-0.8
				c-0.5,0.2-0.5,0.2-0.5,0.5L133.5,239.1z"/>
			<path class="st0" d="M138.8,240.6c0.8-0.2,0.8-0.4,0.7-1.1l-1.1-4.1c-0.2-0.7-0.3-0.8-1.1-0.6l-0.1-0.2l2.8-0.7l0,0.2
				c-0.7,0.2-0.9,0.3-0.7,1.1l1.1,4.1c0.2,0.7,0.4,0.8,1.1,0.6l0,0.2l-2.8,0.7L138.8,240.6z"/>
			<path class="st0" d="M146.2,238.7l-2.7,0.9l-0.1-0.2c0.8-0.3,0.8-0.5,0.6-1.2l-1.5-4.6l-0.5,0.2c-1,0.3-1.2,0.6-1.1,1.6l-0.2,0.1
				l-0.5-1.6l5.2-1.7l0.6,1.5l-0.2,0.1c-0.5-0.9-0.8-1-1.8-0.7l-0.5,0.2l1.5,4.7c0.2,0.6,0.4,0.8,1.1,0.5L146.2,238.7z"/>
			<path class="st0" d="M154.4,235.2l-2.2,1l-0.1-0.2c0.3-0.1,0.6-0.3,0.5-0.6c-0.1-0.1-0.3-0.4-0.4-0.5l-0.7-0.7l-2.3,1l0.1,1.2
				c0,0.1,0,0.3,0.1,0.4c0.2,0.4,0.6,0.2,0.8,0.1l0.1,0.2l-1.7,0.8l-0.1-0.2c0.1-0.1,0.3-0.2,0.4-0.4c0.1-0.3,0.1-1.1,0.1-1.5
				l-0.1-5.1l0.2-0.1l4.5,4c0.6,0.5,0.7,0.6,1.1,0.4L154.4,235.2z M151.1,234l-2.1-1.9l0.1,2.9L151.1,234z"/>
			<path class="st0" d="M158.6,232.8l-2.5,1.3l-0.1-0.2c0.8-0.5,0.7-0.7,0.3-1.3l-2.3-4.2l-0.5,0.3c-0.9,0.5-1.1,0.8-0.7,1.8
				l-0.2,0.1l-0.7-1.5l4.8-2.6l0.8,1.4l-0.2,0.1c-0.7-0.8-1-0.9-2-0.3l-0.5,0.3l2.4,4.3c0.3,0.6,0.5,0.7,1.2,0.3L158.6,232.8z"/>
			<path class="st0" d="M164.7,229.2l-4.5,2.7l-0.1-0.1c0.5-0.4,0.7-0.6,0.3-1.2l-2.3-3.6c-0.4-0.6-0.6-0.6-1.2-0.3l-0.1-0.2
				l4.4-2.7l0.7,1.2l-0.2,0.1c-0.6-0.6-0.9-0.6-1.8-0.1l-1.1,0.7c-0.2,0.1-0.3,0.2-0.1,0.4l1.1,1.8l1.3-0.8c0.7-0.5,0.7-0.7,0.4-1.3
				l0.2-0.1l1.2,1.9l-0.2,0.1c-0.5-0.6-0.7-0.6-1.4-0.2l-1.3,0.8l1.3,2c0.2,0.3,0.2,0.3,1.4-0.4c1-0.6,1.3-1.1,1.1-2.2l0.2-0.1
				L164.7,229.2z"/>
			<path class="st0" d="M168.8,219.1c-0.5,0.4-0.6,0.5-0.2,1.2l2.4,3.5c0.4,0.6,0.6,0.6,1.2,0.3l0.1,0.2l-2.2,1.5l-0.1-0.1
				c0.6-0.4,0.6-0.6,0.2-1.3l-2.4-3.6l0,0l1,5.9l-0.1,0.1l-4.9-3l0,0l2.1,3.2c0.6,0.8,0.8,0.9,1.4,0.5l0.1,0.1l-1.9,1.3l-0.1-0.2
				c0.6-0.4,0.7-0.7,0.1-1.5l-2.2-3.2c-0.4-0.6-0.6-0.6-1.3-0.2l-0.1-0.2l1.6-1.1l4.6,2.8l-0.9-5.2l1.6-1.1L168.8,219.1z"/>
			<path class="st6" d="M38.4,229.3c0,0-2-8.2-1.4-11.7c0.3-1.8,1.3-4.3,2.9-5.3l0.1,0c0,0-12.1-9.5-25.6-11.3
				c6.5,6.1,11.7,12.5,10.9,13.2c-0.9,0.7-14.7,1.8-14.7,1.8s21.5,8.3,30.8,21.6c1.2,1.8,3.5-4.8-0.8-6
				C40.1,231.5,36.1,230.1,38.4,229.3L38.4,229.3z"/>
			<g>
				<path class="st6" d="M174,229.3c0,0,2-8.2,1.4-11.7c-0.3-1.8-1.3-4.3-2.9-5.3l-0.1,0c0,0,12.1-9.5,25.6-11.3
					c-6.5,6.1-11.7,12.5-10.9,13.2c0.9,0.7,14.7,1.8,14.7,1.8s-21.6,8.3-30.8,21.6c-1.2,1.8-3.5-4.8,0.9-6
					C172.3,231.5,176.3,230.1,174,229.3L174,229.3z"/>
				<path class="st3" d="M202,214.9c-5.4-0.4-11.4-1-13.5-1.4c1-1.8,5-6.5,10.3-11.6l2.5-2.3l-3.4,0.5c-12,1.6-22.8,9-25.5,11
					c0,0-0.1,0-0.1-0.1c-1.1-0.4-2.8-0.5-5,1.3c-7,6-26.9,20-59,21.6c-0.7,0-1.4,0.1-2.1,0.1c-0.7,0-1.4,0-2.1-0.1
					c-32.1-1.6-52-15.6-59-21.6c-2.1-1.8-3.9-1.7-5-1.3c-0.1,0-0.1,0-0.2,0.1c-2.7-2-13.5-9.4-25.5-11l-3.4-0.5l2.5,2.3
					c5.4,5.1,9.3,9.8,10.3,11.6c-2.1,0.4-8.1,1-13.5,1.4l-4.8,0.4l4.5,1.7c0.2,0.1,21.3,8.4,30.3,21.2c0.4,0.6,0.9,0.8,1.4,0.8
					c0.2,0,0.3,0,0.5-0.1c1.3-0.4,1.9-2.3,1.8-3.9c-0.1-2.2-1.3-3.9-3.4-4.4c-0.2-0.1-0.5-0.2-0.9-0.3c0.7,0.1,1.6,0.3,2.5,1
					c1,0.8,25.3,19.1,63.6,20.2l0.1,0c0.1,0,0.1,0,0.2,0c37.7-1.1,61-18.2,63.6-20.2c0.9-0.7,1.8-1,2.5-1c-0.3,0.1-0.7,0.3-0.9,0.3
					c-2.1,0.6-3.3,2.2-3.4,4.4c0,1.6,0.6,3.5,1.8,3.9c0.1,0,0.3,0.1,0.5,0.1c0.5,0,1-0.2,1.4-0.8c9-12.8,30.1-21.1,30.3-21.2
					l4.5-1.7L202,214.9z M37,230.9c-7.2-6.8-16.7-11.8-22-14.2c10-0.9,10.6-1.4,10.9-1.6c0.3-0.2,0.5-0.6,0.5-1
					c0.1-1.9-5-7.5-8.7-11.3c9.3,2.2,17.5,7.5,20.4,9.6c0,0,0,0.1-0.1,0.1c-0.1,0.1-0.1,0.2-0.2,0.2c-1.1,1.4-1.8,3.3-2,4.8
					c-0.5,3,0.8,9.1,1.3,11.3c-0.5,0.4-0.6,0.9-0.5,1.2C36.6,230.3,36.8,230.6,37,230.9z M41.9,234.4c0.2,0.7,0.1,1.4-0.1,1.9
					c-1.3-1.7-2.7-3.3-4.3-4.9c1.1,0.8,2.7,1.3,2.7,1.3C41.1,232.9,41.7,233.5,41.9,234.4z M168.6,229.5c-1,0.8-24.7,18.6-62.3,19.7
					l-0.1,0l-0.1,0c-37.6-1.1-61.3-19-62.3-19.7c-1.6-1.2-3.1-1.5-4.2-1.5c-0.1,0-0.2,0-0.4,0c-0.6-2.7-1.6-7.9-1.2-10.3
					c0.2-1,0.5-2,1-2.9c0,0,0-0.1,0.1-0.1c0.1-0.2,0.2-0.3,0.3-0.5c0-0.1,0.1-0.1,0.1-0.2c0.1-0.1,0.2-0.2,0.3-0.4
					c0.1-0.1,0.1-0.1,0.2-0.2c0.1-0.1,0.2-0.2,0.3-0.3c0.1,0,0.1-0.1,0.2-0.1c0.2-0.1,0.3-0.2,0.5-0.3c0.8-0.3,1.7,0,2.8,0.9
					c7.2,6.1,27.6,20.5,60.3,22.1c0.7,0,1.4,0.1,2.1,0.1l0,0l0,0c0.7,0,1.4-0.1,2.1-0.1c32.8-1.6,53.1-16,60.3-22.1
					c1.1-0.9,2-1.2,2.8-0.9c0.2,0.1,0.3,0.1,0.4,0.2c0.1,0.1,0.2,0.2,0.3,0.3c0.1,0,0.1,0.1,0.2,0.1c0.1,0.1,0.2,0.2,0.3,0.3
					c0.1,0.1,0.1,0.1,0.2,0.2c0.1,0.1,0.1,0.2,0.2,0.3c0.1,0.1,0.1,0.2,0.2,0.3c0,0.1,0.1,0.2,0.1,0.2c0.1,0.2,0.2,0.4,0.3,0.5
					c0,0,0,0,0,0.1c0.3,0.7,0.5,1.5,0.7,2.2c0.4,2.3-0.6,7.5-1.2,10.2C172.1,228,170.4,228.2,168.6,229.5z M170.6,236.3
					c-0.2-0.5-0.3-1.2-0.1-1.9c0.2-0.9,0.8-1.4,1.6-1.7c0,0,1.6-0.4,2.7-1.2C173.3,233,171.9,234.6,170.6,236.3z M175.5,230.9
					c0.2-0.3,0.3-0.6,0.3-0.9c0-0.3-0.1-0.8-0.5-1.2c0.5-2.2,1.8-8.3,1.3-11.3c-0.2-1-0.5-2-1-3c0-0.1-0.1-0.1-0.1-0.2
					c0-0.1-0.1-0.1-0.1-0.2c-0.3-0.6-0.7-1.2-1.1-1.7c2.9-2.1,11.1-7.4,20.4-9.6c-3.7,3.8-8.8,9.4-8.7,11.3c0,0.4,0.2,0.8,0.5,1
					c0.2,0.2,1,0.7,10.9,1.6C192.1,219.1,182.7,224,175.5,230.9z"/>
			</g>
		</g>
		<g>
			<path class="st7" d="M164.4,127.5c-4.6,3.6-5.5,2-5.8,1.1c-0.3-0.9-0.3-3.3,0.9-3.8l-9.1-5.1l2.8-9.8c-1.2,0.5-2.9-1.2-3.4-2.1
				c-0.5-0.8-0.9-2.6,4.9-3.2l4.2-18.9l-19.1,4.1c-0.6,5.8-2.4,5.3-3.3,4.8c-0.8-0.5-2.6-2.1-2.1-3.3l-10.1,2.8l-5-8.9
				c-0.5,1.2-2.9,1.2-3.9,0.9c-0.9-0.3-2.5-1.2,1.1-5.7l-10.6-16.3L95.5,80.4c3.7,4.5,2.1,5.4,1.1,5.7c-0.9,0.3-3.3,0.3-3.9-0.9
				l-5.1,9.1l-9.9-2.8c0.5,1.2-1.3,2.9-2.1,3.3c-0.8,0.5-2.6,0.9-3.3-4.8l-19.1-4.1l4.2,18.9c5.8,0.6,5.3,2.4,4.9,3.2
				c-0.5,0.8-2.1,2.6-3.4,2.1l2.9,10l-9,5c1.2,0.5,1.2,2.9,0.9,3.8c-0.3,0.9-1.2,2.5-5.8-1.1l-16.4,10.5L48,148.8
				c4.6-3.6,5.5-2,5.8-1.1c0.3,0.9,0.3,3.3-0.9,3.8l9.1,5.1l-2.8,9.8c1.2-0.5,2.9,1.2,3.4,2.1c0.5,0.8,0.9,2.6-4.9,3.2l-4.2,18.9
				l19.1-4.1c0.6-5.8,2.4-5.3,3.3-4.8c0.8,0.5,2.6,2.1,2.1,3.3l10.1-2.8l5,8.9c0.5-1.2,2.9-1.2,3.9-0.9c0.9,0.3,2.5,1.2-1.1,5.7
				l10.6,16.3l10.6-16.3c-3.7-4.5-2.1-5.4-1.1-5.7c0.9-0.3,3.3-0.3,3.9,0.9l5.1-9.1l9.9,2.8c-0.5-1.2,1.3-2.9,2.1-3.3
				c0.8-0.5,2.6-0.9,3.3,4.8l19.1,4.1l-4.2-18.9c-5.8-0.6-5.3-2.4-4.9-3.2c0.5-0.8,2.1-2.6,3.4-2.1l-2.9-10l9-5
				c-1.2-0.5-1.2-2.9-0.9-3.8c0.3-0.9,1.2-2.5,5.8,1.1l16.4-10.5L164.4,127.5z"/>
			<path class="st6" d="M106.2,172.8c19.3,0,34.9-15.5,34.9-34.6c0-19.1-15.6-34.6-34.9-34.6c-19.3,0-34.9,15.5-34.9,34.6
				C71.3,157.3,86.9,172.8,106.2,172.8z"/>
			<path class="st0" d="M101.6,167.2c-5.8,0-10.3-12.8-10.3-29c0-16.3,4.5-29,10.3-29c5.8,0,10.3,12.8,10.3,29
				C111.9,154.5,107.4,167.2,101.6,167.2z M101.6,110.3c-5,0-9.2,12.8-9.2,27.9c0,15.1,4.2,27.9,9.2,27.9c5,0,9.2-12.8,9.2-27.9
				C110.8,123,106.6,110.3,101.6,110.3z"/>
			<path class="st0" d="M89.4,157.4c-2.6,0-4.5-0.7-5.4-2.1l0,0c-3.2-4.8,4.8-15.7,18.2-24.9c13.5-9.2,26.6-12.6,29.8-7.8
				c3.2,4.8-4.8,15.7-18.2,24.9C104.4,153.8,95.2,157.4,89.4,157.4z M84.8,154.6c2.8,4.1,15.7,0.4,28.2-8.1
				c12.5-8.5,20.7-19.2,17.9-23.3c-2.8-4.1-15.7-0.4-28.2,8.1C90.2,139.9,82,150.5,84.8,154.6L84.8,154.6z"/>
			<path class="st0" d="M123.6,158.1c-5.9,0-15.2-3.5-24.3-9.3c-13.7-8.8-22-19.4-18.9-24.3c3.1-4.9,16.3-1.8,30,6.9
				c6.5,4.1,12,8.9,15.6,13.4c3.7,4.6,4.9,8.5,3.4,10.9l0,0c-0.7,1-1.8,1.7-3.3,2.1C125.3,158,124.5,158.1,123.6,158.1z M86.2,123.3
				c-2.3,0-4,0.6-4.8,1.8c-2.7,4.2,5.8,14.6,18.6,22.7c10.2,6.5,20.5,10,25.8,8.9c1.2-0.3,2.1-0.8,2.6-1.6l0,0
				c1.2-1.9,0-5.5-3.3-9.6c-3.5-4.4-8.9-9.1-15.3-13.1C100.8,126.7,91.7,123.3,86.2,123.3z"/>
			<path class="st3" d="M101.8,140.8c1.4,0,2.6-1.2,2.6-2.6c0-1.4-1.2-2.6-2.6-2.6c-1.5,0-2.7,1.2-2.7,2.6
				C99.1,139.6,100.3,140.8,101.8,140.8z"/>
			<path class="st3" d="M90.3,158.3c0.8,0,1.5-0.6,1.5-1.5c0-0.8-0.6-1.4-1.5-1.4c-0.8,0-1.5,0.6-1.5,1.4
				C88.8,157.7,89.5,158.3,90.3,158.3z"/>
		</g>
		<g>
			<polygon class="st6" points="97.6,95.1 98.3,98.9 100.1,98.5 99.5,94.8 			"/>
			<polygon class="st6" points="99.1,103.1 100.9,102.7 100.6,101.1 98.7,101.4 			"/>
			<polygon class="st6" points="90.2,97.2 91.5,100.8 93.3,100.2 92,96.6 			"/>
			<polygon class="st6" points="93,104.8 94.8,104.2 94.2,102.6 92.4,103.2 			"/>
			<polygon class="st6" points="83.3,100.6 85.2,103.9 86.8,103 84.9,99.7 			"/>
			<polygon class="st6" points="87.4,107.6 89,106.7 88.1,105.2 86.5,106.1 			"/>
			<polygon class="st6" points="77.1,105.1 79.6,108.1 81,106.9 78.5,103.9 			"/>
			<polygon class="st6" points="82.3,111.3 83.7,110.1 82.6,108.8 81.2,110 			"/>
			<polygon class="st6" points="71.7,110.6 74.7,113.1 75.9,111.7 72.9,109.2 			"/>
			<polygon class="st6" points="78,115.8 79.2,114.4 77.9,113.3 76.7,114.8 			"/>
			<polygon class="st6" points="67.4,117 70.8,118.9 71.7,117.3 68.4,115.4 			"/>
			<polygon class="st6" points="74.5,121.1 75.4,119.5 73.9,118.6 73,120.2 			"/>
			<polygon class="st6" points="64.3,124 68,125.3 68.6,123.6 65,122.3 			"/>
			<polygon class="st6" points="72,126.8 72.6,125 71,124.5 70.4,126.2 			"/>
			
				<rect x="63.6" y="128.9" transform="matrix(0.1722 -0.9851 0.9851 0.1722 -75.4868 171.9025)" class="st6" width="1.8" height="3.9"/>
			<polygon class="st6" points="70.5,132.8 70.8,131 69.1,130.7 68.8,132.6 			"/>
			<rect x="62" y="137.2" class="st6" width="3.9" height="1.8"/>
			<rect x="68.4" y="137.2" class="st6" width="1.7" height="1.8"/>
			
				<rect x="62.6" y="144.5" transform="matrix(0.9849 -0.1729 0.1729 0.9849 -24.1737 13.3472)" class="st6" width="3.9" height="1.8"/>
			<polygon class="st6" points="70.8,145.3 70.5,143.5 68.8,143.8 69.1,145.6 			"/>
			<polygon class="st6" points="64.9,154 68.6,152.7 67.9,151 64.3,152.3 			"/>
			<polygon class="st6" points="72.6,151.3 72,149.5 70.4,150.1 71,151.9 			"/>
			<polygon class="st6" points="68.4,160.9 71.7,159 70.8,157.4 67.4,159.3 			"/>
			<polygon class="st6" points="75.4,156.9 74.5,155.3 73,156.1 73.9,157.7 			"/>
			<polygon class="st6" points="72.9,167.1 75.9,164.6 74.7,163.2 71.7,165.7 			"/>
			<polygon class="st6" points="79.2,161.9 78,160.5 76.6,161.6 77.8,163 			"/>
			<polygon class="st6" points="78.5,172.4 81,169.5 79.5,168.3 77,171.2 			"/>
			<polygon class="st6" points="83.7,166.2 82.3,165 81.2,166.3 82.6,167.5 			"/>
			<polygon class="st6" points="84.9,176.7 86.8,173.3 85.2,172.4 83.3,175.7 			"/>
			<polygon class="st6" points="89,169.6 87.4,168.7 86.5,170.2 88.1,171.1 			"/>
			<polygon class="st6" points="91.9,179.7 93.3,176.1 91.5,175.5 90.2,179.1 			"/>
			<polygon class="st6" points="94.7,172.1 93,171.5 92.4,173.1 94.2,173.7 			"/>
			
				<rect x="96.9" y="178.6" transform="matrix(0.1742 -0.9847 0.9847 0.1742 -95.1397 245.5999)" class="st6" width="3.8" height="1.9"/>
			<polygon class="st6" points="100.9,173.6 99,173.3 98.7,175 100.6,175.3 			"/>
			<rect x="105.3" y="178.2" class="st6" width="1.9" height="3.8"/>
			<rect x="105.3" y="174" class="st6" width="1.9" height="1.7"/>
			<polygon class="st6" points="114.8,181.3 114.1,177.5 112.3,177.8 113,181.6 			"/>
			<polygon class="st6" points="113.4,173.3 111.6,173.6 111.9,175.3 113.7,175 			"/>
			<polygon class="st6" points="122.2,179.1 120.9,175.5 119.1,176.1 120.5,179.8 			"/>
			<polygon class="st6" points="119.4,171.5 117.7,172.1 118.3,173.7 120,173.1 			"/>
			<polygon class="st6" points="129.1,175.7 127.2,172.4 125.6,173.3 127.5,176.7 			"/>
			<polygon class="st6" points="125.1,168.7 123.5,169.7 124.3,171.1 125.9,170.2 			"/>
			<polygon class="st6" points="135.4,171.2 132.9,168.3 131.5,169.5 133.9,172.4 			"/>
			<polygon class="st6" points="130.1,165 128.7,166.2 129.8,167.5 131.2,166.3 			"/>
			<polygon class="st6" points="140.7,165.7 137.7,163.2 136.6,164.6 139.5,167.1 			"/>
			<polygon class="st6" points="134.5,160.5 133.3,161.9 134.6,163 135.8,161.6 			"/>
			<polygon class="st6" points="145,159.3 141.7,157.4 140.7,159 144.1,160.9 			"/>
			<polygon class="st6" points="137.9,155.3 137,156.9 138.5,157.7 139.4,156.1 			"/>
			<polygon class="st6" points="148.1,152.3 144.5,151 143.9,152.8 147.5,154.1 			"/>
			<polygon class="st6" points="140.5,149.6 139.8,151.3 141.4,151.9 142.1,150.1 			"/>
			
				<rect x="147" y="143.5" transform="matrix(0.1721 -0.9851 0.9851 0.1721 -20.8554 266.1359)" class="st6" width="1.8" height="3.9"/>
			<polygon class="st6" points="141.9,143.5 141.6,145.3 143.3,145.6 143.6,143.8 			"/>
			<rect x="146.6" y="137.3" class="st6" width="3.9" height="1.8"/>
			<rect x="142.3" y="137.3" class="st6" width="1.7" height="1.8"/>
			<rect x="146" y="130" transform="matrix(0.9849 -0.173 0.173 0.9849 -20.4106 27.5549)" class="st6" width="3.9" height="1.8"/>
			<polygon class="st6" points="141.6,131.1 141.9,132.9 143.6,132.6 143.3,130.8 			"/>
			<polygon class="st6" points="147.5,122.3 143.9,123.6 144.5,125.3 148.1,124 			"/>
			<polygon class="st6" points="139.8,125.1 140.5,126.8 142.1,126.2 141.4,124.5 			"/>
			<polygon class="st6" points="144.1,115.4 140.7,117.3 141.7,118.9 145,117 			"/>
			<polygon class="st6" points="137,119.5 138,121.1 139.4,120.2 138.5,118.6 			"/>
			<polygon class="st6" points="139.5,109.2 136.6,111.7 137.8,113.1 140.7,110.7 			"/>
			<polygon class="st6" points="133.3,114.5 134.5,115.9 135.8,114.8 134.6,113.4 			"/>
			<polygon class="st6" points="134,103.9 131.5,106.9 132.9,108.1 135.4,105.1 			"/>
			<polygon class="st6" points="128.7,110.2 130.1,111.3 131.2,110 129.8,108.8 			"/>
			<polygon class="st6" points="127.6,99.7 125.6,103 127.2,103.9 129.2,100.6 			"/>
			<polygon class="st6" points="123.5,106.7 125.1,107.6 125.9,106.1 124.3,105.2 			"/>
			<polygon class="st6" points="120.5,96.6 119.2,100.2 120.9,100.8 122.2,97.2 			"/>
			<polygon class="st6" points="117.7,104.2 119.5,104.8 120,103.2 118.3,102.6 			"/>
			<polygon class="st6" points="113,94.8 112.3,98.5 114.2,98.9 114.8,95.1 			"/>
			
				<rect x="111.8" y="101.1" transform="matrix(0.1723 -0.985 0.985 0.1723 -7.303 195.4374)" class="st6" width="1.7" height="1.9"/>
			<rect x="105.3" y="94.3" class="st6" width="1.9" height="3.8"/>
			<rect x="105.3" y="100.7" class="st6" width="1.9" height="1.7"/>
		</g>
		<g>
			<g>
				<g>
					<path class="st6" d="M60.1,71.2c0.1,0.2,0.1,0.3,0.1,0.5c-0.1,0.2-0.2,0.3-0.3,0.4l-1.1,0.7c0.2,0.1,0.6,0.1,1.1,0.1
						c0.4,0,0.7,0.1,0.9,0.4c0.1,0.1,0.1,0.3,0.1,0.4c0,0.1-0.1,0.3-0.2,0.3c-0.2,0.2-0.5,0.1-0.9-0.2c-0.5-0.4-0.9-0.7-1.1-0.8
						c0,0.2,0.1,0.6,0.4,1.3c0.2,0.4,0.1,0.7-0.1,0.9c-0.1,0.1-0.2,0.1-0.4,0.1c-0.2,0-0.3-0.1-0.4-0.2c-0.2-0.3-0.2-0.6,0-1
						c0.2-0.5,0.3-0.9,0.3-1.1l-1.1,0.7c-0.2,0.1-0.3,0.2-0.5,0.2c-0.2,0-0.3-0.1-0.4-0.3c-0.1-0.1-0.1-0.3-0.1-0.4
						c0-0.2,0.1-0.3,0.2-0.4c0.2-0.1,0.5-0.1,0.9-0.1c0.5,0.1,0.8,0.1,1,0c-0.2-0.2-0.4-0.4-0.7-0.6c-0.3-0.2-0.5-0.4-0.6-0.4
						c-0.1-0.1-0.2-0.3-0.1-0.5c0-0.2,0.1-0.3,0.2-0.4c0.1-0.1,0.3-0.1,0.5-0.1c0.2,0.1,0.3,0.1,0.4,0.3c0.1,0.1,0.1,0.3,0.2,0.7
						c0.1,0.4,0.2,0.7,0.4,0.9c0.1-0.1,0.2-0.5,0.3-1.1c0.1-0.3,0.2-0.5,0.3-0.6c0.1-0.1,0.3-0.1,0.4-0.1C59.9,70.9,60,71,60.1,71.2
						z"/>
					<path class="st6" d="M62.7,64.3l0-0.1c0,0,0,0,0,0c1.1-0.6,1.8-0.5,2.2,0.2c0.2,0.5,0.2,0.8-0.3,1.1c-0.3,0.2-0.6,0.1-0.8-0.3
						C63.4,64.5,63,64.3,62.7,64.3z M63.3,66.9l0-0.1c0.4-0.2,0.8-0.3,1.2-0.3c0.4,0,0.7,0.2,0.9,0.5c0.2,0.5,0.2,0.8-0.3,1.1
						c-0.3,0.2-0.6,0-0.8-0.4C64,67.2,63.7,67,63.3,66.9z M69.1,62c0.1-0.5,0.2-0.8,0.3-0.8c0.1,0,0.3,0,0.6,0.1
						c0.3,0.1,0.5,0.1,0.6,0.2c0,0.1,0,0.1,0,0.2c-0.1,0.2-0.1,0.4-0.1,0.4l1.1,2c0,0.1,0.3,0.5,0.8,1.4c0.1,0.2-0.1,0.5-0.6,0.7
						c-0.2,0.1-0.3,0.1-0.4-0.1c-0.3-0.7-0.6-1.3-0.9-1.7l-1.2-2.3l-3.2,1.7l1.4,2.7c0,0.1,0.3,0.6,0.8,1.4c0.1,0.2-0.1,0.5-0.6,0.7
						c-0.2,0.1-0.3,0.1-0.4-0.1c-0.3-0.7-0.6-1.3-0.9-1.8l-0.9-1.8c-0.3-0.6-0.6-1-0.8-1.4c0.3-0.1,0.8-0.2,1.3-0.2l0.8-0.4
						c-0.1-0.4-0.2-0.8-0.4-1.1c0,0,0,0,0-0.1c1.1-0.3,1.6-0.5,1.7-0.4c0,0.1,0,0.1,0,0.2c-0.1,0.1-0.2,0.2-0.2,0.2
						c-0.1,0.4-0.4,0.8-0.8,1.1L69.1,62z M67.7,71.1c0.3,0.3,0.4,0.6,0.5,0.7c0.2,0.4,0.1,0.6-0.3,0.8c-0.5,0.3-0.8,0.2-1-0.2
						c-0.1-0.1-0.1-0.3-0.2-0.5c-0.1-0.3-0.2-0.5-0.2-0.6c-0.2-0.4-0.5-0.5-1.1-0.5l-0.1-0.2c0,0,0.1,0,0.1-0.1
						c0.4-0.2,0.6-0.5,0.5-0.9l-0.6-4.3l0.2,0l1.3,4.1c0.1,0.3,0.2,0.6,0.3,0.8C67.2,70.4,67.4,70.7,67.7,71.1z M70.5,64.4
						c0,0,0,0.1,0,0.1l-1.2,0.6l0.1,0.2c0.8-0.4,1.3-0.3,1.5,0.2c0.2,0.3,0.1,0.6-0.2,0.7c-0.2,0.1-0.3,0-0.5-0.2
						c-0.3-0.4-0.5-0.5-0.8-0.5l0.1,0.2c0.1,0.1,0.2,0.4,0.6,1l0,0c0.1,0.2-0.1,0.4-0.5,0.6c-0.2,0.1-0.3,0.1-0.3,0l0,0
						c-0.1-0.3-0.3-0.5-0.3-0.7c0-0.1-0.1-0.1-0.1-0.1c-0.1,0.5-0.3,0.9-0.6,1.3l-0.1-0.1c0.1-0.6,0.1-1.3,0-1.9l-0.3,0.1
						c-0.2,0.1-0.3,0.2-0.4,0.2l-0.3-0.2c0.3-0.1,0.6-0.2,1-0.4c0.1,0,0.1-0.1,0.2-0.1l-0.6-1.2c-0.2,0.1-0.3,0.2-0.5,0.3
						c-0.1,0.1-0.3,0.1-0.5,0.2l-0.1-0.1c0.7-0.6,1.3-1.2,1.9-1.9c0.7,0.1,1,0.2,1.1,0.3c0,0.1,0,0.1,0,0.1c0,0,0,0-0.1,0
						c-0.1,0-0.2,0-0.2,0c0,0,0,0,0,0c-0.2,0.2-0.4,0.4-0.7,0.5l0.7,1.3l0.4-0.2c0-0.4,0.1-0.6,0.1-0.6c0,0,0.2,0,0.4,0.1
						C70.3,64.2,70.4,64.3,70.5,64.4z M66.9,64.7c0.5-0.2,0.9-0.1,1,0.2c0.1,0.3,0.1,0.5-0.2,0.6c-0.2,0.1-0.3,0-0.4-0.1
						c0,0,0,0,0,0c0,0,0,0,0,0c-0.2-0.3-0.3-0.4-0.5-0.5L66.9,64.7z M69.1,69c-0.7,0.4-1.2,0.6-1.4,0.8l-0.4-0.3
						c0.4-0.1,1-0.4,1.8-0.8l0.4-0.2c-0.1-0.3-0.2-0.6-0.4-1c1.1-0.4,1.6-0.5,1.7-0.4c0,0.1,0,0.1,0,0.2c-0.1,0.2-0.2,0.2-0.2,0.3
						c0,0.1,0.1,0.2,0.1,0.3l1.2-0.6c0.1-0.7,0.2-1.1,0.3-1.1c0.1,0,0.3,0,0.7,0.1c0.4,0.1,0.6,0.2,0.7,0.3c0,0.1,0,0.1,0,0.2
						L71.1,68c0.9,0.4,2,0.4,3.2-0.2l0.1,0.2c-0.2,0.1-0.2,0.5,0,1c0.1,0.2,0.1,0.4,0,0.4c-0.4,0.2-0.9,0.2-1.6,0
						c-0.7-0.2-1.3-0.6-1.8-1.3l-0.2,0.1c0.2,0.9,0.1,1.8-0.3,2.5c-0.4,0.7-1,1.3-1.8,1.7l-0.1-0.1c0.4-0.4,0.7-0.9,1-1.6
						c0.2-0.7,0.3-1.3,0.2-1.9L69.1,69z M69.1,64.7c0-0.4-0.1-0.8-0.3-1.2c0.6-0.1,0.9-0.1,1,0c0,0.1,0,0.1-0.1,0.1c0,0-0.1,0-0.1,0
						c0,0,0,0,0,0c0,0.3-0.2,0.7-0.4,1L69.1,64.7z"/>
					<path class="st6" d="M81.6,59.2c0.1,0.2,0.2,0.7,0.5,1.3l0,0c0.1,0.2-0.2,0.4-0.8,0.6c-0.2,0.1-0.3,0-0.3-0.1l-0.1-0.5
						l-1.2,0.4l0.9,2.8c0.1,0.4,0.4,1.2,0.8,2.6c0.1,0.2-0.2,0.4-0.8,0.6c-0.2,0.1-0.4,0-0.4-0.1l0,0c-0.4-1.3-0.6-2.3-0.8-2.8
						l-1.4-4.5c-0.2-0.8-0.5-1.5-0.7-2c0.4,0,0.9,0,1.4,0l1.1-0.3c0.3-0.5,0.4-0.7,0.5-0.7c0.1,0,0.3,0,0.6,0.2
						c0.3,0.1,0.5,0.2,0.5,0.3c0,0.1,0,0.1,0,0.2c-0.1,0.3-0.2,0.4-0.2,0.4L81.6,59.2z M78.7,57.9l0.4,1.2l1.2-0.4l-0.4-1.2
						L78.7,57.9z M80.3,59l-1.2,0.4l0.4,1.3l1.2-0.4L80.3,59z M87.5,63.3c0.2,0.5,0.1,0.9-0.2,1.2c-0.3,0.3-0.5,0.5-0.8,0.6
						c-0.1,0-0.2,0-0.3-0.2c-0.2-0.4-0.4-0.7-0.5-0.8c-0.1-0.1-0.5-0.2-1-0.1l0-0.2c0.5-0.1,0.9-0.2,1.2-0.3
						c0.2-0.1,0.3-0.2,0.3-0.5l-1.1-3.8l-1.3,0.4l0.1,0.3c0.1,0.2-0.2,0.4-0.7,0.6c-0.2,0.1-0.4,0-0.4-0.1l0,0
						c-0.1-0.5-0.3-1-0.4-1.4l-0.3-0.9c-0.2-0.7-0.4-1.3-0.6-1.8c0.5,0,1,0,1.4,0L84,56c0.2-0.5,0.4-0.7,0.4-0.7
						c0.1,0,0.3,0,0.6,0.1c0.3,0.1,0.5,0.2,0.6,0.3c0,0.1,0,0.1,0,0.1c-0.1,0.2-0.2,0.4-0.2,0.5L87.5,63.3z M82.8,56.6l0.4,1.2
						l1.3-0.4l-0.4-1.2L82.8,56.6z M83.7,59.4L85,59l-0.4-1.3l-1.3,0.4L83.7,59.4z"/>
					<path class="st6" d="M95,54.5l0.3,2.7l0.1,0c0.2-0.5,0.3-0.8,0.4-0.8c0.1,0,0.2,0.1,0.5,0.4c0.2,0.3,0.4,0.4,0.4,0.5
						c0,0.1,0,0.1-0.1,0.1l-1.2,0.1l0.3,2.6c0.4-0.1,0.8-0.3,1.3-0.6l0.1,0.2c-0.8,1-1.8,1.8-2.8,2.3c0,0,0,0.1,0,0.3
						c0,0.1,0,0.2-0.1,0.2c-0.1,0-0.4-0.6-0.8-1.8c0,0,0.1,0,0.2,0c0.3,0,0.7-0.1,1-0.2l-0.3-2.8c-0.4,0-0.8,0.1-0.9,0.2L93,57.4
						c0.3,0,0.7,0,1.1,0l-0.3-2.7l0,0c-0.5,0-0.8,0.1-1,0.2l-0.2-0.4c0.3,0,0.8,0,1.5,0l0.6-0.1c0.3-0.6,0.5-0.9,0.6-0.9
						c0.1,0,0.3,0.1,0.6,0.4c0.3,0.3,0.5,0.4,0.5,0.5c0,0.1,0,0.1-0.1,0.1L95,54.5z M99.1,62.2l-0.2-1.9l-0.3,0c-0.2,0-0.3,0-0.4,0
						c-0.1,0-0.2,0-0.3,0c-0.3,0-0.6,0.1-0.7,0.1l-0.2-0.4c0.4,0,1,0,1.7-0.1l0.2,0l-0.2-1.9l-0.7,0.1l0.1,0.5
						c0,0.2-0.2,0.3-0.8,0.4c-0.3,0-0.4,0-0.4-0.2c-0.1-0.9-0.1-1.6-0.2-2l-0.2-2c-0.1-0.7-0.2-1.3-0.3-1.7c0.4,0.1,0.9,0.2,1.4,0.3
						l2.4-0.2c0.3-0.4,0.5-0.6,0.6-0.6c0.1,0,0.2,0.1,0.5,0.3c0.3,0.2,0.5,0.3,0.5,0.4c0,0.1,0,0.1,0,0.1c-0.1,0.2-0.2,0.3-0.2,0.3
						l0.3,2.4c0,0.1,0.1,0.7,0.2,1.8c0,0.3-0.3,0.4-0.8,0.5c-0.2,0-0.4,0-0.4-0.2l0-0.4L99.8,58l0.2,1.9l0.4,0
						c0.3-0.6,0.5-0.9,0.6-0.9c0.1,0,0.3,0.1,0.6,0.4c0.3,0.3,0.5,0.5,0.5,0.5c0,0.1,0,0.1-0.1,0.1l-2,0.2l0.2,1.9l0.6-0.1
						c0.4-0.7,0.6-1.1,0.6-1.1c0.1,0,0.3,0.1,0.7,0.5c0.4,0.3,0.5,0.5,0.5,0.6c0,0.1,0,0.1-0.1,0.1L98,62.6c-0.2,0-0.3,0-0.4,0
						c-0.1,0-0.2,0-0.2,0c-0.3,0-0.6,0.1-0.8,0.1l-0.2-0.4c0.4,0,0.9,0,1.7-0.1L99.1,62.2z M97.7,55.7l0.7-0.1l-0.2-1.9l-0.7,0.1
						L97.7,55.7z M98.6,57.9l-0.2-2L97.7,56l0.2,2L98.6,57.9z M99.4,53.6l0.2,1.9l0.7-0.1l-0.2-1.9L99.4,53.6z M100.3,55.7l-0.7,0.1
						l0.2,2l0.7-0.1L100.3,55.7z"/>
					<path class="st6" d="M109.6,61.6c-0.6-0.1-1.1-0.1-1.4,0L108,61c0.5,0.1,1.2,0.2,2,0.3l1.8,0.1l0.6-7.1l-1.5-0.1
						c-0.6-0.1-1.1-0.1-1.5-0.1l-0.1-0.5c0.5,0.1,1.2,0.2,2.1,0.3l4,0.3c0.5-0.6,0.8-0.9,0.9-0.9c0.1,0,0.3,0.2,0.6,0.6
						c0.3,0.4,0.5,0.6,0.5,0.7c0,0.1-0.1,0.2-0.1,0.2l-3.4-0.3l-0.6,7.1l1.9,0.2l0.1-0.2c0.5-0.6,0.7-0.8,0.8-0.8
						c0.1,0,0.3,0.2,0.6,0.6c0.3,0.4,0.5,0.6,0.5,0.7c0,0.1-0.1,0.2-0.1,0.1L109.6,61.6z"/>
					<path class="st6" d="M132.7,60.1l-3.4-0.9c-0.1,1.3,0.2,2.4,0.7,3.4c0.5,1,1.1,1.7,1.8,2.1l-0.1,0.2l0,0
						c-0.3-0.1-0.6,0.2-1,0.9c-0.2,0.4-0.4,0.5-0.4,0.5c-0.2-0.1-0.5-0.5-0.9-1.4c-0.3-0.9-0.5-1.8-0.5-2.9c0-1.1,0.1-2,0.3-2.9
						l-0.2-0.1c-0.5,1.5-1.4,2.7-2.7,3.7c-1.2,0.9-2.5,1.4-3.8,1.5l-0.1-0.2c1-0.4,1.9-1,2.9-2c1-1,1.7-2.1,2.1-3.3l-1.2-0.3
						c-0.6-0.2-1.2-0.3-1.6-0.4l0-0.6c0.4,0.2,1.1,0.4,2.2,0.7l0.9,0.2c0.2-0.5,0.4-1.2,0.7-2.1c0.1-0.3,0.2-0.7,0.2-1.1
						c0.5,0.2,1,0.4,1.3,0.6c0.4,0.2,0.5,0.3,0.5,0.4c0,0.1-0.1,0.1-0.2,0.1c-0.2,0.1-0.3,0.1-0.3,0.1c-0.2,0.8-0.5,1.6-0.7,2.3
						l2,0.6c0.6-0.5,1-0.8,1.1-0.7c0.1,0,0.2,0.2,0.5,0.7c0.3,0.4,0.4,0.7,0.3,0.8C132.8,60.1,132.7,60.1,132.7,60.1z"/>
					<path class="st6" d="M140.6,68l-1.7-0.9c-0.7-0.3-1.2-0.6-1.5-0.7l0-0.5c0.3,0.3,0.9,0.6,1.8,1l1.6,0.8c0,0,0,0,0-0.1
						c0.1-0.1,0.1-0.3,0.2-0.5c0-0.1,0.1-0.2,0.1-0.4l0.9,0.7c0.4-0.1,0.7-0.3,0.9-0.4l-1.9-1c-0.7-0.3-1.2-0.6-1.5-0.7l0-0.5
						c0.3,0.3,0.9,0.6,1.8,1l1.8,0.9c0.3-0.1,0.6-0.1,0.8-0.2c0,0,0.1,0,0.1,0c0,0,0.1,0.1,0.1,0.1c0,0,0,0,0,0.1
						c0.3,0.7,0.5,1.1,0.4,1.2c-0.1,0.1-0.1,0.1-0.2,0.1c-0.2-0.1-0.4-0.2-0.4-0.2c-0.5,0-1.1-0.1-1.7-0.3c0.1,0.1,0.2,0.2,0.1,0.3
						c0,0-0.1,0.1-0.1,0.1c-0.2,0-0.3,0-0.3,0.1l-0.1,0.3l1.8,0.9c0.7-0.4,1.1-0.6,1.2-0.6c0.1,0,0.2,0.3,0.3,0.8
						c0.1,0.5,0.2,0.7,0.2,0.8c0,0.1-0.1,0.1-0.2,0.1l-3.4-1.7l-0.5,1.1c-0.2,0.4-0.5,0.7-0.9,0.7c-0.4,0-0.7,0-0.9-0.1
						c-0.1,0-0.1-0.1-0.1-0.3c0.1-0.4,0.2-0.7,0.1-0.9c-0.1-0.1-0.3-0.3-0.5-0.5l0.1-0.2c0.2,0.1,0.5,0.3,0.8,0.4
						c0.2,0.1,0.4,0.2,0.4,0.2c0.1,0,0.1-0.1,0.2-0.2L140.6,68z M145.5,65.4l0.5-0.9c-0.4-0.2-0.7-0.3-0.9-0.4l0-0.5
						c0.2,0.1,0.4,0.3,0.6,0.4l0.4,0.2l0.5-0.9c-0.4-0.2-0.7-0.3-1-0.4l0-0.5c0.4,0.3,0.7,0.5,1,0.6c0.5-0.2,0.8-0.2,0.9-0.2
						c0.1,0,0.2,0.2,0.3,0.5c0.1,0.3,0.2,0.5,0.2,0.6c0,0.1-0.1,0.1-0.2,0.1c-0.2,0-0.4,0.1-0.4,0.1l-1.3,2.4
						c0.2-0.1,0.4-0.2,0.4-0.2c0.1,0,0.1,0.2,0.2,0.5c0,0.3,0,0.5,0,0.6c0,0.1-0.1,0.1-0.2,0.1c-0.2,0-0.3-0.1-0.3-0.1
						c-0.5,0.2-0.9,0.3-1.4,0.3l-0.1-0.2c0.3-0.3,0.6-0.6,0.8-0.9l-6.1-3c0,0.2,0,0.5-0.1,0.8c-0.2,0.5-0.6,0.6-1,0.4
						c-0.4-0.2-0.5-0.4-0.3-0.8c0.1-0.2,0.3-0.3,0.6-0.5c0.2-0.1,0.4-0.3,0.5-0.6c0.1-0.1,0.1-0.3,0.1-0.4l0.2,0
						c0.1,0.2,0.1,0.5,0.1,0.7l1-2.1c0,0,0.1-0.3,0.3-0.8c0,0,0-0.1,0-0.1c0.1-0.2,0.2-0.4,0.2-0.6c0.5,0.4,0.8,0.7,1,0.9
						c0.3-0.2,0.5-0.4,0.7-0.7c0.8,0.6,1.1,1,1.1,1.1c0,0.1-0.1,0.1-0.2,0.1c-0.1-0.1-0.2-0.1-0.3-0.1c-0.5,0-1,0-1.5-0.2l-0.4,0.8
						l0.1,0.1c0.5-0.3,0.7-0.5,0.8-0.4c0.1,0,0.2,0.2,0.2,0.5c0.1,0.3,0.1,0.5,0.1,0.6c0,0.1-0.1,0.1-0.1,0.1l-1.2-0.6l-0.5,1
						l0.2,0.1c0.4-0.3,0.7-0.5,0.8-0.4c0.1,0,0.2,0.2,0.2,0.6c0.1,0.3,0.1,0.5,0.1,0.6c0,0.1-0.1,0.1-0.1,0.1l-1.2-0.6l-0.4,0.9
						l4.6,2.2l0.4-0.8c-0.4-0.2-0.7-0.3-1-0.4l0-0.5c0.2,0.1,0.4,0.3,0.6,0.4L145.5,65.4L145.5,65.4z M143.8,64.5
						c0.2,0.3,0.2,0.5,0.1,0.8c-0.2,0.4-0.4,0.5-0.7,0.3c-0.2-0.1-0.2-0.2-0.2-0.5c0-0.2,0-0.4-0.1-0.4c-0.6,0-1.1,0-1.6-0.2l0-0.1
						c0.5-0.1,1-0.2,1.4-0.4c-0.1-0.3-0.3-0.5-0.5-0.7l0.1-0.1c0.2,0.1,0.3,0.2,0.4,0.3c0.1,0.1,0.2,0.2,0.3,0.3
						c0.3-0.2,0.5-0.4,0.7-0.5c0.6,0.7,0.8,1,0.8,1.1c0,0.1-0.1,0.1-0.2,0.1c-0.2-0.1-0.3-0.1-0.4-0.1
						C144,64.4,143.9,64.5,143.8,64.5z M145.4,62.5c-0.1,0.1-0.3,0.1-0.4,0.2c0.2,0.2,0.2,0.5,0.1,0.8c-0.2,0.3-0.4,0.4-0.7,0.3
						c-0.1-0.1-0.2-0.2-0.2-0.4c0-0.2,0-0.4,0-0.4c-0.4,0.1-0.9,0.1-1.4,0l0-0.1c0.4-0.1,0.8-0.3,1.1-0.5c-0.1-0.3-0.2-0.5-0.4-0.7
						l0.1-0.1c0.4,0.2,0.6,0.4,0.7,0.5c0.2-0.2,0.4-0.3,0.6-0.5c0.6,0.6,0.8,1,0.8,1.1C145.6,62.6,145.5,62.6,145.4,62.5
						C145.4,62.5,145.4,62.5,145.4,62.5L145.4,62.5C145.4,62.5,145.4,62.5,145.4,62.5z"/>
					<path class="st6" d="M154.8,73c-0.1,0.2-0.3,0.2-0.4,0.2c-0.2,0-0.3,0-0.5-0.2l-1.1-0.7c0,0.2,0.1,0.5,0.3,1.1
						c0.2,0.4,0.1,0.7,0,1c-0.1,0.1-0.2,0.2-0.4,0.2c-0.2,0-0.3,0-0.4-0.1c-0.2-0.2-0.3-0.5-0.1-0.9c0.3-0.6,0.4-1.1,0.4-1.3
						c-0.2,0.1-0.5,0.3-1.1,0.8c-0.3,0.3-0.6,0.4-0.9,0.2c-0.1-0.1-0.2-0.2-0.2-0.3c0-0.1,0-0.3,0.1-0.4c0.2-0.3,0.5-0.4,0.9-0.4
						c0.6,0,0.9,0,1.1,0l-1.1-0.7c-0.2-0.1-0.3-0.2-0.3-0.4c-0.1-0.2,0-0.3,0.1-0.5c0.1-0.1,0.2-0.2,0.4-0.3c0.2,0,0.3,0,0.4,0.1
						c0.2,0.1,0.3,0.4,0.3,0.8c0.1,0.5,0.2,0.8,0.3,0.9c0.2-0.2,0.3-0.5,0.4-0.9c0.1-0.4,0.2-0.6,0.2-0.7c0.1-0.1,0.2-0.2,0.4-0.3
						c0.2,0,0.3,0,0.5,0.1c0.1,0.1,0.2,0.2,0.2,0.4c0,0.2,0,0.3-0.1,0.5c-0.1,0.1-0.3,0.2-0.6,0.5c-0.3,0.2-0.6,0.4-0.7,0.6
						c0.1,0,0.5,0,1.2-0.1c0.3,0,0.5,0,0.6,0.1c0.1,0.1,0.2,0.2,0.2,0.4C155,72.7,154.9,72.9,154.8,73z"/>
				</g>
			</g>
			<g>
				<path class="st6" d="M161.4,72.8l2.7,2.4l-0.2,0.2l-0.1-0.1c-0.2-0.2-0.4-0.3-0.5-0.3c-0.1,0-0.2,0-0.4,0.1
					c-0.1,0.1-0.3,0.3-0.7,0.6l-2.8,3c-0.5,0.6-0.8,1-0.9,1.2c-0.1,0.2-0.1,0.5-0.1,0.8c0.1,0.3,0.2,0.5,0.4,0.7
					c0.3,0.3,0.6,0.4,0.9,0.4c0.3,0,0.7,0,1-0.2c0.3-0.2,0.8-0.6,1.4-1.3l2.3-2.5c0.3-0.3,0.4-0.5,0.5-0.7c0.1-0.2,0.1-0.3,0-0.4
					c-0.1-0.2-0.2-0.4-0.4-0.5l0.2-0.2l1.8,1.6l-0.2,0.2l-0.1-0.1c-0.1-0.1-0.3-0.2-0.5-0.2c-0.2,0-0.3,0-0.5,0.1
					c-0.1,0.1-0.3,0.2-0.5,0.5l-2.1,2.4c-0.7,0.7-1.2,1.2-1.6,1.5c-0.4,0.3-0.8,0.4-1.4,0.4c-0.6,0-1.1-0.3-1.6-0.7
					c-0.4-0.4-0.7-0.8-0.8-1.2c-0.2-0.5-0.2-1,0-1.4c0.1-0.4,0.4-0.9,0.9-1.4l2.8-3c0.3-0.4,0.5-0.6,0.6-0.7c0-0.1,0.1-0.2,0-0.4
					c0-0.1-0.2-0.3-0.4-0.5L161.4,72.8z"/>
				<path class="st6" d="M169,80l-1.5,6l2.7-2.4c0.4-0.3,0.6-0.6,0.6-0.8c0.1-0.3,0-0.6-0.3-0.8l0.2-0.2l1.6,1.7l-0.2,0.2
					c-0.2-0.2-0.4-0.3-0.5-0.3c-0.1,0-0.3,0-0.4,0.1c-0.2,0.1-0.4,0.2-0.7,0.5l-5.2,4.7l-0.1-0.1l2-8.2l-4,3.6
					c-0.4,0.3-0.5,0.6-0.5,0.9c0,0.2,0.1,0.5,0.2,0.6l0.1,0.1l-0.2,0.2l-1.7-1.8l0.2-0.2c0.3,0.3,0.5,0.4,0.8,0.4
					c0.2,0,0.5-0.2,0.9-0.5l4.4-4l0.1-0.3c0.1-0.3,0.1-0.5,0.1-0.6c0-0.1-0.1-0.3-0.2-0.4l0.2-0.2L169,80z"/>
				<path class="st6" d="M168.6,92.1l-0.2,0.1l-2.3-2.9l0.2-0.1l0.1,0.2c0.1,0.2,0.3,0.3,0.4,0.3c0.1,0,0.2,0,0.4,0
					c0.1,0,0.3-0.2,0.7-0.4l4.4-3.4c0.3-0.3,0.5-0.4,0.6-0.5c0.1-0.1,0.1-0.2,0.1-0.4c0-0.1-0.1-0.3-0.2-0.4l-0.1-0.2l0.2-0.1
					l2.3,2.9l-0.2,0.1l-0.1-0.2c-0.1-0.2-0.3-0.3-0.4-0.3c-0.1,0-0.2,0-0.4,0c-0.1,0-0.3,0.2-0.7,0.4l-4.4,3.4
					c-0.3,0.3-0.5,0.4-0.6,0.5c-0.1,0.1-0.1,0.2-0.1,0.4c0,0.1,0.1,0.3,0.2,0.4L168.6,92.1z"/>
				<path class="st6" d="M179.7,93.8l-0.2,0.1c-0.2-0.2-0.4-0.3-0.8-0.3c-0.3,0-0.8,0.1-1.6,0.3l-6.7,1.6l-0.1-0.1l4.2-5.7
					c0.5-0.7,0.8-1.1,0.9-1.3c0.1-0.2,0-0.4-0.1-0.6l0.2-0.1l1.9,2.8l-0.2,0.1l-0.1-0.1c-0.2-0.3-0.3-0.4-0.5-0.4
					c-0.1,0-0.2,0-0.3,0.1c-0.1,0-0.1,0.1-0.2,0.2c-0.1,0.1-0.2,0.3-0.5,0.7l-2.6,3.6l3.9-0.9c0.5-0.1,0.8-0.2,0.9-0.3
					c0.1-0.1,0.3-0.1,0.4-0.2c0.1-0.1,0.2-0.2,0.2-0.3c0-0.1,0.1-0.2,0-0.3c0-0.2-0.1-0.3-0.2-0.5l0.2-0.1L179.7,93.8z"/>
				<path class="st6" d="M181,97.1l-3,1.6l0.1,0.1c0.2,0.4,0.5,0.6,0.9,0.6c0.4,0,0.9-0.1,1.5-0.4l0.1,0.2l-3.9,2.1l-0.1-0.2
					c0.4-0.3,0.7-0.5,0.9-0.8c0.2-0.3,0.3-0.5,0.3-0.7c0-0.2-0.1-0.5-0.2-0.7l-2.1,1.1c-0.4,0.2-0.6,0.4-0.7,0.4
					c-0.1,0.1-0.1,0.2-0.1,0.3c0,0.1,0,0.3,0.1,0.4l0.2,0.4c0.3,0.6,0.7,0.9,1.2,1.1c0.5,0.2,1.1,0.2,1.9-0.1l0.1,0.2l-2.5,1
					l-2.9-5.3l0.2-0.1l0.1,0.2c0.1,0.2,0.2,0.3,0.3,0.4c0.1,0,0.2,0.1,0.4,0c0.1,0,0.3-0.1,0.7-0.3l4.9-2.6c0.3-0.2,0.5-0.3,0.6-0.4
					c0.1-0.1,0.2-0.2,0.2-0.3c0-0.2,0-0.4-0.1-0.6l-0.1-0.2l0.2-0.1l2.8,5.1l-2.2,1.2l-0.1-0.2c0.5-0.4,0.8-0.7,1-1
					c0.1-0.3,0.2-0.6,0.1-0.9c0-0.2-0.2-0.5-0.4-1L181,97.1z"/>
				<path class="st6" d="M180.6,105.4l-2.2,0.9c-0.4,0.2-0.7,0.3-0.8,0.4c-0.1,0.1-0.1,0.2-0.2,0.3c0,0.1,0,0.3,0.2,0.6l-0.2,0.1
					l-1.4-3.3l0.2-0.1c0.1,0.3,0.2,0.5,0.4,0.6c0.1,0.1,0.2,0.1,0.4,0.1c0.1,0,0.4-0.1,0.8-0.3l5-2.2c0.4-0.2,0.7-0.3,0.8-0.4
					c0.1-0.1,0.1-0.2,0.2-0.3c0-0.1,0-0.3-0.2-0.6l0.2-0.1l1.3,3c0.3,0.8,0.5,1.4,0.5,1.8c0,0.4-0.1,0.8-0.3,1.2
					c-0.2,0.4-0.6,0.7-1.1,0.9c-0.6,0.2-1.1,0.3-1.6,0.1c-0.3-0.1-0.6-0.3-0.9-0.7l-2,2.7c-0.3,0.3-0.4,0.6-0.4,0.7
					c-0.1,0.2-0.1,0.4,0,0.5l-0.2,0.1l-0.9-2l2.6-3.6L180.6,105.4z M184.4,103.8l-3.4,1.5l0.1,0.3c0.2,0.4,0.4,0.7,0.6,0.9
					c0.2,0.2,0.4,0.3,0.7,0.3c0.3,0,0.7-0.1,1.1-0.2c0.6-0.3,1-0.6,1.2-0.9c0.2-0.3,0.2-0.8-0.1-1.3L184.4,103.8z"/>
				<path class="st6" d="M188.7,113.2l-2.6,0.9l-0.1-0.2c0.6-0.3,1.1-0.7,1.4-1.2c0.3-0.5,0.4-1,0.2-1.4c-0.1-0.3-0.3-0.6-0.6-0.7
					c-0.3-0.1-0.6-0.1-0.8,0c-0.2,0.1-0.3,0.1-0.4,0.3c-0.2,0.2-0.3,0.4-0.4,0.6c-0.1,0.2-0.2,0.6-0.3,1.3c-0.2,0.9-0.5,1.6-0.8,2
					c-0.3,0.4-0.7,0.7-1.3,0.9c-0.7,0.2-1.3,0.2-1.9-0.1c-0.6-0.3-1-0.7-1.3-1.4c-0.1-0.2-0.1-0.4-0.1-0.6c0-0.2,0-0.5,0.1-0.8
					c0-0.2,0-0.3,0-0.4c0-0.1-0.1-0.2-0.2-0.2c-0.1-0.1-0.3-0.1-0.4-0.1l-0.1-0.2l3-1l0.1,0.2c-0.8,0.4-1.4,0.9-1.7,1.5
					c-0.3,0.6-0.4,1.1-0.2,1.5c0.1,0.4,0.3,0.6,0.7,0.8c0.3,0.1,0.6,0.2,0.9,0c0.2-0.1,0.4-0.2,0.5-0.3c0.1-0.1,0.3-0.3,0.4-0.5
					c0.1-0.2,0.2-0.6,0.3-1.1c0.2-0.7,0.3-1.3,0.5-1.6c0.2-0.3,0.4-0.6,0.6-0.9c0.3-0.2,0.6-0.4,1-0.6c0.6-0.2,1.2-0.2,1.8,0
					c0.6,0.2,1,0.7,1.2,1.2c0.1,0.2,0.1,0.4,0.1,0.7c0,0.2,0,0.4-0.1,0.6c-0.1,0.3-0.1,0.4,0,0.5c0,0.1,0.1,0.1,0.2,0.2
					c0.1,0,0.2,0,0.5,0L188.7,113.2z"/>
				<path class="st6" d="M181.9,120.3l-0.2,0.1l-0.9-3.5l0.2-0.1l0.1,0.2c0.1,0.2,0.1,0.3,0.3,0.4c0.1,0.1,0.2,0.1,0.3,0.1
					c0.1,0,0.4,0,0.8-0.1l5.4-1.4c0.4-0.1,0.7-0.2,0.8-0.3c0.1-0.1,0.2-0.2,0.2-0.3c0-0.1,0-0.3,0-0.5l-0.1-0.2l0.2-0.1l0.9,3.5
					l-0.2,0.1l-0.1-0.2c-0.1-0.2-0.1-0.3-0.3-0.4c-0.1-0.1-0.2-0.1-0.3-0.1c-0.1,0-0.4,0-0.8,0.1l-5.4,1.4c-0.4,0.1-0.7,0.2-0.8,0.3
					c-0.1,0.1-0.2,0.2-0.2,0.3c0,0.1,0,0.3,0,0.5L181.9,120.3z"/>
				<path class="st6" d="M181.8,120.6l0.2,0l0,0.2c0,0.2,0.1,0.3,0.2,0.4c0.1,0.1,0.2,0.2,0.4,0.2c0.1,0,0.4,0,0.8-0.1l5.5-1
					c0.4-0.1,0.7-0.1,0.8-0.2c0.1-0.1,0.2-0.1,0.2-0.3c0.1-0.1,0.1-0.3,0-0.5l0-0.2l0.2,0l0.6,3.1c0.2,0.8,0.1,1.5,0,2
					c-0.2,0.7-0.6,1.2-1.2,1.7c-0.6,0.4-1.3,0.7-2.2,0.9c-0.6,0.1-1.1,0.1-1.7,0.1c-0.5-0.1-1-0.2-1.3-0.4c-0.4-0.2-0.7-0.4-0.9-0.7
					c-0.3-0.3-0.5-0.7-0.7-1.1c-0.1-0.2-0.2-0.5-0.3-1L181.8,120.6z M190.1,121.7l-6.5,1.2c-0.3,0.1-0.5,0.1-0.6,0.2
					c-0.1,0-0.1,0.1-0.2,0.2c0,0.1-0.1,0.2,0,0.4c0.1,0.6,0.4,0.9,0.9,1.2c0.7,0.3,1.7,0.3,3,0.1c1.1-0.2,1.9-0.5,2.5-0.9
					c0.5-0.3,0.7-0.7,0.9-1C190.2,122.7,190.2,122.3,190.1,121.7z"/>
				<path class="st6" d="M185.9,131.8l-0.2-2.4l-0.8-0.2c-0.3-0.1-0.5-0.1-0.7-0.1c-0.2,0-0.4,0.1-0.5,0.3c-0.1,0.1-0.1,0.3-0.1,0.7
					l-0.2,0l-0.2-2.3l0.2,0c0.1,0.2,0.2,0.4,0.4,0.6c0.2,0.1,0.7,0.3,1.3,0.5l6.9,1.9l0,0.1l-6.7,3.1c-0.6,0.3-1,0.5-1.2,0.7
					c-0.1,0.1-0.2,0.3-0.2,0.5l-0.2,0l-0.3-3.4l0.2,0l0,0.1c0,0.3,0.1,0.5,0.2,0.6c0.1,0.1,0.2,0.1,0.3,0.1c0.1,0,0.2,0,0.2-0.1
					c0,0,0.2-0.1,0.5-0.2L185.9,131.8z M186.4,131.6l2.8-1.3l-3-0.8L186.4,131.6z"/>
				<path class="st6" d="M183.8,135.1l0.2,0l0,0.2c0,0.2,0,0.4,0.1,0.5c0.1,0.1,0.2,0.2,0.3,0.2c0.1,0,0.3,0.1,0.8,0.1l5.5,0.1
					c0.4,0,0.7,0,0.8,0c0.1,0,0.2-0.1,0.3-0.2c0.1-0.1,0.1-0.3,0.1-0.5l0-0.2l0.2,0l-0.1,3.1c0,0.8-0.2,1.5-0.4,2
					c-0.3,0.6-0.9,1.1-1.5,1.4c-0.7,0.3-1.5,0.5-2.3,0.4c-0.6,0-1.1-0.1-1.6-0.3c-0.5-0.2-0.9-0.4-1.2-0.6c-0.3-0.3-0.6-0.5-0.8-0.9
					c-0.2-0.3-0.3-0.7-0.4-1.2c0-0.2-0.1-0.5-0.1-1L183.8,135.1z M191.7,137.9l-6.6-0.1c-0.3,0-0.6,0-0.6,0c-0.1,0-0.1,0.1-0.2,0.1
					c-0.1,0.1-0.1,0.2-0.1,0.4c0,0.6,0.2,1,0.7,1.3c0.6,0.4,1.6,0.6,3,0.7c1.1,0,1.9-0.1,2.6-0.4c0.5-0.2,0.9-0.5,1-0.8
					C191.7,138.9,191.7,138.5,191.7,137.9z"/>
				<path class="st6" d="M191.4,146l-3.4-0.3l0,0.1c0,0.4,0.1,0.8,0.4,1c0.3,0.2,0.8,0.4,1.4,0.5l0,0.2l-4.4-0.4l0-0.2
					c0.5,0,0.9,0,1.2-0.1c0.3-0.1,0.5-0.2,0.7-0.4c0.1-0.2,0.2-0.4,0.2-0.7l-2.4-0.2c-0.5,0-0.7-0.1-0.9,0c-0.1,0-0.2,0.1-0.3,0.2
					c-0.1,0.1-0.1,0.2-0.1,0.4l0,0.4c-0.1,0.6,0.1,1.2,0.4,1.6c0.3,0.4,0.9,0.8,1.6,1l0,0.2l-2.6-0.6l0.6-6l0.2,0l0,0.2
					c0,0.2,0,0.4,0.1,0.5c0,0.1,0.1,0.2,0.3,0.2c0.1,0,0.4,0.1,0.8,0.1l5.5,0.5c0.4,0,0.6,0.1,0.7,0c0.1,0,0.3-0.1,0.4-0.2
					c0.1-0.1,0.2-0.3,0.2-0.5l0-0.2l0.2,0l-0.6,5.8l-2.5-0.2l0-0.2c0.6,0,1.1-0.1,1.3-0.3c0.3-0.2,0.5-0.4,0.7-0.7
					c0.1-0.2,0.2-0.5,0.2-1.1L191.4,146z"/>
				<path class="st6" d="M185.8,155.3l-2.3-0.5c-0.4-0.1-0.7-0.1-0.9-0.1c-0.1,0-0.2,0.1-0.3,0.2c-0.1,0.1-0.2,0.3-0.2,0.6l-0.2,0
					l0.8-3.5l0.2,0c-0.1,0.3-0.1,0.5,0,0.7c0,0.1,0.1,0.2,0.2,0.3c0.1,0.1,0.4,0.2,0.8,0.3l5.3,1.2c0.4,0.1,0.7,0.1,0.9,0.1
					c0.1,0,0.2-0.1,0.3-0.2c0.1-0.1,0.2-0.3,0.2-0.6l0.2,0l-0.7,3c-0.2,1-0.6,1.6-1.1,2c-0.5,0.3-1.1,0.4-1.7,0.3
					c-0.5-0.1-1-0.4-1.3-0.7c-0.3-0.4-0.5-0.8-0.5-1.3C185.5,156.7,185.6,156.1,185.8,155.3z M189.8,156.2l-3.6-0.8
					c0,0.1-0.1,0.2-0.1,0.2c-0.1,0.4,0,0.8,0.2,1c0.2,0.3,0.7,0.5,1.3,0.6c0.6,0.1,1.1,0.1,1.4,0c0.3-0.2,0.5-0.5,0.6-0.9
					L189.8,156.2z"/>
				<path class="st6" d="M188.3,164.2c-0.3,1.1-0.9,1.8-1.9,2.2c-1,0.4-2.1,0.4-3.3,0c-1-0.3-1.8-0.9-2.5-1.6c-0.8-1-1-2.1-0.7-3.3
					c0.4-1.2,1.2-2,2.4-2.3c0.9-0.3,1.9-0.2,3,0.1c1.2,0.4,2.1,1,2.7,2C188.5,162.3,188.6,163.3,188.3,164.2z M187.9,164.2
					c0.2-0.6,0-1.2-0.7-1.7c-0.5-0.5-1.4-0.9-2.5-1.2c-1.4-0.4-2.4-0.6-3.2-0.4c-0.5,0.1-0.9,0.4-1.1,0.9c-0.1,0.3-0.1,0.6,0,0.9
					c0.2,0.4,0.5,0.7,1,1.1c0.5,0.3,1.2,0.6,2.1,0.9c1.1,0.3,1.9,0.5,2.5,0.5c0.6,0,1-0.1,1.3-0.3
					C187.6,164.8,187.8,164.5,187.9,164.2z"/>
				<path class="st6" d="M179,172.6l-2.6-1.4l2.5-5.7l0.2,0.1l-0.1,0.2c-0.1,0.2-0.1,0.4-0.1,0.5c0,0.1,0.1,0.2,0.2,0.3
					c0.1,0.1,0.3,0.2,0.7,0.4l5.1,2.2c0.4,0.2,0.7,0.3,0.8,0.3c0.1,0,0.2,0,0.3-0.1c0.1-0.1,0.2-0.2,0.3-0.4l0.1-0.2l0.2,0.1
					l-1.5,3.4l-0.2-0.1l0.1-0.3c0.1-0.2,0.1-0.4,0.1-0.5c0-0.1-0.1-0.2-0.2-0.3c-0.1-0.1-0.3-0.2-0.7-0.4l-4.9-2.1
					c-0.4-0.2-0.7-0.3-0.8-0.3c-0.1,0-0.2,0-0.3,0.1c-0.1,0.1-0.2,0.2-0.3,0.5l-0.2,0.5c-0.1,0.3-0.2,0.7-0.2,0.9
					c0,0.3,0.2,0.6,0.4,0.9c0.2,0.3,0.6,0.7,1.2,1.1L179,172.6z"/>
				<path class="st6" d="M174.6,175.2l-0.2-0.1l1.7-3.2l0.2,0.1l-0.1,0.2c-0.1,0.2-0.1,0.3-0.1,0.5c0,0.1,0.1,0.2,0.2,0.3
					c0.1,0.1,0.3,0.2,0.7,0.4l4.9,2.5c0.4,0.2,0.6,0.3,0.7,0.3c0.1,0,0.2,0,0.4-0.1c0.1-0.1,0.2-0.2,0.3-0.4l0.1-0.2l0.2,0.1
					l-1.7,3.2l-0.2-0.1l0.1-0.2c0.1-0.2,0.1-0.3,0.1-0.5c0-0.1-0.1-0.2-0.2-0.3c-0.1-0.1-0.3-0.2-0.7-0.4l-4.9-2.5
					c-0.4-0.2-0.6-0.3-0.7-0.3c-0.1,0-0.2,0-0.4,0.1c-0.1,0.1-0.2,0.2-0.3,0.4L174.6,175.2z"/>
				<path class="st6" d="M178.1,185.2l-1.9-1.2l0.1-0.2c0.5,0.2,0.9,0.3,1.2,0.3c0.3,0,0.5-0.1,0.8-0.2c0.1-0.1,0.3-0.2,0.5-0.5
					l0.3-0.4l-5.6-3.4c-0.4-0.2-0.6-0.3-0.7-0.4c-0.1,0-0.2,0-0.4,0.1c-0.1,0.1-0.2,0.2-0.3,0.3l-0.1,0.2l-0.2-0.1l1.9-3.1l0.2,0.1
					l-0.1,0.2c-0.1,0.2-0.2,0.3-0.1,0.5c0,0.1,0.1,0.2,0.1,0.3c0.1,0.1,0.3,0.2,0.6,0.5l5.6,3.4l0.3-0.4c0.2-0.4,0.3-0.8,0.2-1.1
					c-0.1-0.4-0.4-0.8-0.9-1.2l0.1-0.2l1.9,1.2L178.1,185.2z"/>
				<path class="st6" d="M175.5,188l-2.8-2l-0.1,0.1c-0.3,0.4-0.3,0.7-0.2,1.1c0.2,0.4,0.5,0.8,1,1.2l-0.1,0.2l-3.6-2.6l0.1-0.2
					c0.4,0.3,0.8,0.4,1.1,0.5c0.3,0.1,0.6,0.1,0.8,0c0.2-0.1,0.4-0.3,0.6-0.5l-1.9-1.4c-0.4-0.3-0.6-0.4-0.7-0.5c-0.1,0-0.2,0-0.3,0
					c-0.1,0-0.2,0.1-0.3,0.3l-0.2,0.3c-0.4,0.5-0.6,1-0.5,1.6c0.1,0.5,0.3,1.1,0.8,1.7l-0.1,0.2l-2-1.8l3.6-4.8l0.2,0.1l-0.1,0.2
					c-0.1,0.2-0.2,0.3-0.2,0.5c0,0.1,0,0.2,0.1,0.3c0.1,0.1,0.3,0.3,0.6,0.5l4.5,3.3c0.3,0.2,0.5,0.4,0.6,0.4c0.1,0.1,0.3,0.1,0.4,0
					c0.2,0,0.3-0.1,0.5-0.3l0.1-0.2l0.2,0.1l-3.5,4.7l-2-1.5l0.1-0.2c0.5,0.3,1,0.4,1.3,0.4c0.3,0,0.6-0.1,0.9-0.3
					c0.2-0.1,0.4-0.4,0.7-0.8L175.5,188z M176.9,191.8l-0.7-2.6l0.3-0.4l1.4,1.8L176.9,191.8z"/>
				<path class="st6" d="M168.5,197.5l-2.2-1.9l0.1-0.1c0.7,0.4,1.3,0.6,1.9,0.5c0.6,0,1-0.3,1.4-0.6c0.3-0.3,0.4-0.7,0.5-1.2
					s-0.1-0.9-0.4-1.4c-0.3-0.6-0.8-1.1-1.3-1.6c-0.6-0.5-1.1-0.9-1.7-1.2c-0.6-0.3-1.1-0.4-1.5-0.4c-0.5,0-0.9,0.3-1.2,0.7
					c-0.3,0.3-0.5,0.7-0.5,1.1c-0.1,0.4,0,1,0.1,1.7l-0.5-0.5c-0.1-0.6-0.1-1.2,0-1.6c0.1-0.5,0.4-0.9,0.7-1.3
					c0.5-0.6,1.1-0.9,1.7-1.1c0.7-0.2,1.3-0.2,2.1,0c0.7,0.2,1.4,0.6,1.9,1.1c0.6,0.5,1.1,1.2,1.4,1.9c0.3,0.7,0.4,1.5,0.3,2.2
					c-0.1,0.7-0.4,1.3-0.8,1.8c-0.3,0.4-0.8,0.7-1.3,0.9c-0.3,0.1-0.5,0.2-0.6,0.3c-0.1,0.1-0.1,0.2-0.1,0.3c0,0.1,0.1,0.3,0.2,0.4
					L168.5,197.5z"/>
				<path class="st6" d="M165.7,200l-6.1-1.5l2.5,2.6c0.3,0.4,0.6,0.6,0.8,0.6c0.3,0.1,0.6,0,0.8-0.3l0.2,0.2l-1.7,1.6L162,203
					c0.2-0.2,0.3-0.4,0.3-0.5c0-0.1,0-0.3-0.1-0.4c-0.1-0.2-0.2-0.4-0.5-0.7l-4.8-5.1l0.1-0.1l8.2,1.9l-3.6-3.9
					c-0.3-0.4-0.6-0.5-0.9-0.5c-0.3,0-0.5,0.1-0.6,0.2l-0.1,0.1l-0.2-0.2l1.8-1.7l0.2,0.2c-0.3,0.3-0.4,0.5-0.4,0.8
					c0,0.2,0.2,0.5,0.5,0.8l4,4.3l0.3,0.1c0.3,0.1,0.5,0.1,0.6,0.1c0.1,0,0.3-0.1,0.4-0.2l0.2,0.2L165.7,200z"/>
				<path class="st6" d="M153.4,199.6l-0.1-0.2l2.9-2.3l0.1,0.2l-0.2,0.1c-0.2,0.1-0.3,0.3-0.3,0.4c0,0.1,0,0.2,0,0.4
					c0,0.1,0.2,0.3,0.4,0.6l3.5,4.3c0.3,0.3,0.5,0.5,0.5,0.6c0.1,0.1,0.2,0.1,0.4,0.1c0.1,0,0.3-0.1,0.4-0.2l0.2-0.1l0.1,0.2
					l-2.9,2.3l-0.1-0.2l0.2-0.1c0.2-0.1,0.3-0.3,0.3-0.4c0-0.1,0-0.2,0-0.4c0-0.1-0.2-0.3-0.4-0.6L155,200c-0.3-0.3-0.5-0.5-0.6-0.6
					c-0.1-0.1-0.2-0.1-0.4-0.1c-0.1,0-0.3,0.1-0.4,0.2L153.4,199.6z"/>
				<path class="st6" d="M152.3,210.6l-1.7-2.4l0.2-0.1c0.6,0.5,1.1,0.9,1.7,1c0.6,0.1,1.1,0,1.5-0.3c0.4-0.2,0.6-0.6,0.7-1
					c0.1-0.5,0.1-0.9,0-1.4c-0.2-0.6-0.5-1.3-0.9-1.9c-0.4-0.6-0.9-1.1-1.4-1.6c-0.5-0.4-1-0.7-1.4-0.7c-0.5-0.1-0.9,0-1.4,0.3
					c-0.4,0.2-0.6,0.6-0.8,1c-0.2,0.4-0.3,0.9-0.3,1.6l-0.4-0.6c0-0.6,0.2-1.1,0.4-1.6c0.2-0.4,0.6-0.8,1-1.1
					c0.6-0.4,1.3-0.6,1.9-0.7c0.7,0,1.3,0.1,2,0.5c0.6,0.4,1.2,0.9,1.6,1.5c0.5,0.7,0.7,1.4,0.9,2.2c0.1,0.8,0,1.5-0.2,2.2
					c-0.3,0.7-0.7,1.2-1.2,1.6c-0.4,0.3-0.9,0.5-1.5,0.6c-0.3,0.1-0.6,0.1-0.6,0.2c-0.1,0.1-0.1,0.2-0.2,0.3c0,0.1,0,0.3,0.1,0.5
					L152.3,210.6z"/>
				<path class="st6" d="M144.5,207.9l2.2-1.2l-0.1-0.9c0-0.3-0.1-0.5-0.2-0.7c-0.1-0.2-0.3-0.3-0.5-0.3c-0.1,0-0.3,0.1-0.7,0.2
					l-0.1-0.2l2-1.1l0.1,0.2c-0.2,0.2-0.3,0.4-0.4,0.6c0,0.3,0,0.7,0.1,1.4l1.1,7.1l-0.1,0l-5.5-4.8c-0.5-0.5-0.9-0.7-1.1-0.8
					c-0.2-0.1-0.3,0-0.5,0l-0.1-0.2l3-1.6l0.1,0.2l-0.1,0.1c-0.2,0.1-0.4,0.3-0.4,0.4c0,0.1,0,0.2,0,0.3c0,0.1,0.1,0.1,0.1,0.2
					c0,0,0.1,0.1,0.4,0.3L144.5,207.9z M144.8,208.3l2.3,2l-0.5-3L144.8,208.3z"/>
			</g>
			<g>
				<path class="st6" d="M50.4,78.4l-1.6-1.7c-0.3-0.3-0.5-0.5-0.6-0.6c-0.1-0.1-0.2-0.1-0.4,0c-0.1,0-0.3,0.2-0.6,0.4L47,76.4
					l2.8-2.6l0.2,0.2c-0.3,0.2-0.4,0.4-0.4,0.6c0,0.1,0,0.3,0,0.4c0,0.1,0.2,0.3,0.5,0.7l3.8,4c0.3,0.3,0.5,0.5,0.6,0.6
					c0.1,0.1,0.2,0.1,0.4,0c0.1,0,0.3-0.2,0.6-0.4l0.2,0.2l-2.4,2.2c-0.8,0.7-1.5,1.1-2.1,1.1c-0.6,0-1.2-0.2-1.6-0.7
					c-0.4-0.4-0.6-0.8-0.6-1.3c0-0.5,0.1-1,0.4-1.4C49.3,79.5,49.7,79,50.4,78.4z M53.2,81.4l-2.5-2.6c-0.1,0.1-0.2,0.1-0.2,0.2
					c-0.3,0.3-0.5,0.7-0.4,1c0,0.4,0.3,0.8,0.7,1.3c0.4,0.5,0.8,0.7,1.2,0.7c0.4,0,0.7-0.1,1.1-0.4L53.2,81.4z"/>
				<path class="st6" d="M48.1,87.6c-0.8,0.9-1.7,1.4-2.8,1.4c-1.1,0-2.2-0.4-3.1-1.2c-0.8-0.7-1.3-1.5-1.6-2.5
					c-0.3-1.3-0.1-2.4,0.8-3.4c0.9-1,2-1.5,3.2-1.3c1,0.1,1.9,0.5,2.8,1.2c0.9,0.8,1.5,1.8,1.6,2.9C49.1,85.8,48.8,86.8,48.1,87.6z
					 M47.7,87.4c0.5-0.5,0.5-1.2,0.1-2c-0.3-0.6-0.9-1.4-1.8-2.2c-1.1-0.9-2-1.5-2.9-1.6c-0.6-0.1-1,0.1-1.4,0.5
					c-0.2,0.3-0.4,0.6-0.4,0.9c0,0.4,0.1,0.9,0.5,1.4c0.3,0.5,0.8,1.1,1.5,1.7c0.8,0.7,1.5,1.2,2.1,1.4c0.5,0.2,1,0.3,1.4,0.2
					C47.2,87.8,47.5,87.7,47.7,87.4z"/>
				<path class="st6" d="M36.6,93.4l-2.3-1.9l3.9-5.4l0.2,0.1l-0.1,0.2c-0.1,0.2-0.2,0.3-0.2,0.5c0,0.1,0,0.2,0.1,0.4
					c0.1,0.1,0.3,0.3,0.6,0.5l4.6,3.2c0.4,0.2,0.6,0.4,0.7,0.4c0.1,0,0.2,0,0.4,0c0.1-0.1,0.3-0.2,0.4-0.3l0.1-0.2l0.2,0.1l-2.3,3.3
					L42.6,94l0.2-0.3c0.1-0.2,0.2-0.3,0.2-0.5c0-0.1,0-0.2-0.1-0.4c-0.1-0.1-0.3-0.3-0.6-0.5l-4.4-3.1c-0.4-0.2-0.6-0.4-0.7-0.4
					c-0.1,0-0.2,0-0.4,0.1c-0.1,0.1-0.2,0.2-0.4,0.5L36,89.9c-0.2,0.3-0.4,0.6-0.4,0.9c0,0.3,0,0.6,0.2,1c0.2,0.4,0.5,0.8,0.9,1.3
					L36.6,93.4z"/>
				<path class="st6" d="M37.4,102.8l-0.2-0.1c0.1-0.2,0.1-0.4,0.1-0.6c-0.1-0.2-0.3-0.7-0.8-1.5l-1.8-2.9l-1.8-1
					c-0.4-0.2-0.6-0.3-0.7-0.4c-0.1,0-0.2,0-0.4,0.1c-0.1,0.1-0.2,0.2-0.3,0.4L31.3,97l-0.2-0.1l2.1-3.6l0.2,0.1l-0.2,0.3
					c-0.1,0.2-0.2,0.4-0.2,0.5c0,0.1,0,0.2,0.1,0.3c0.1,0.1,0.3,0.2,0.6,0.4l1.5,0.9l4,0.3c0.8,0.1,1.3,0.1,1.5,0
					c0.2-0.1,0.3-0.2,0.5-0.4l0.2,0.1L39.6,99l-0.2-0.1l0.1-0.1c0.1-0.2,0.2-0.3,0.1-0.4c0-0.1-0.1-0.2-0.1-0.2
					c-0.1-0.1-0.5-0.1-1.2-0.2l-3.1-0.2l1.5,2.4c0.4,0.6,0.6,1,0.8,1.1c0.1,0.1,0.2,0.1,0.3,0c0.2-0.1,0.3-0.2,0.5-0.5l0.2,0.1
					L37.4,102.8z"/>
				<path class="st6" d="M34.5,109.2l-2.1-1l0.1-0.2c0.5,0.1,0.9,0.2,1.2,0.1c0.3,0,0.5-0.1,0.8-0.3c0.1-0.1,0.3-0.3,0.4-0.6
					l0.2-0.5l-5.9-2.7c-0.4-0.2-0.6-0.3-0.8-0.3c-0.1,0-0.2,0-0.4,0.1c-0.1,0.1-0.2,0.2-0.3,0.4l-0.1,0.2l-0.2-0.1l1.6-3.6l0.2,0.1
					l-0.1,0.2c-0.1,0.2-0.1,0.4-0.1,0.5c0,0.1,0.1,0.2,0.2,0.3c0.1,0.1,0.3,0.2,0.7,0.4l5.9,2.7l0.2-0.5c0.2-0.5,0.3-0.8,0.1-1.2
					c-0.2-0.4-0.5-0.8-1.1-1.2l0.1-0.2l2.1,1L34.5,109.2z"/>
				<path class="st6" d="M32.9,112l-3.3-1.1l0,0.1c-0.2,0.4-0.1,0.8,0.1,1.1c0.2,0.3,0.7,0.6,1.3,0.9l-0.1,0.2l-4.2-1.5l0.1-0.2
					c0.5,0.1,0.9,0.2,1.2,0.1c0.3,0,0.6-0.1,0.7-0.3c0.2-0.1,0.3-0.4,0.4-0.7L27,110c-0.4-0.2-0.7-0.2-0.8-0.2c-0.1,0-0.2,0-0.3,0.1
					c-0.1,0.1-0.2,0.2-0.2,0.4l-0.1,0.4c-0.2,0.7-0.2,1.3,0,1.8c0.2,0.5,0.6,1,1.3,1.4l-0.1,0.2l-2.4-1.2l2.1-6.1l0.2,0.1l-0.1,0.2
					c-0.1,0.2-0.1,0.4-0.1,0.5c0,0.1,0.1,0.2,0.2,0.3c0.1,0.1,0.3,0.2,0.7,0.3l5.3,1.8c0.4,0.1,0.6,0.2,0.7,0.2c0.2,0,0.3,0,0.4-0.1
					c0.2-0.1,0.3-0.3,0.4-0.5l0.1-0.2l0.2,0.1l-2.1,5.9l-2.4-0.8l0.1-0.2c0.6,0.1,1.1,0.1,1.4,0c0.3-0.1,0.6-0.3,0.8-0.6
					c0.1-0.2,0.3-0.5,0.5-1.1L32.9,112z"/>
				<path class="st6" d="M30.4,123.5l-2.9-0.7l0.1-0.2c0.8,0,1.4-0.1,1.9-0.5c0.5-0.3,0.8-0.8,0.9-1.3c0.1-0.5,0.1-0.9-0.1-1.4
					c-0.2-0.5-0.5-0.8-1-1.1c-0.6-0.4-1.2-0.6-2-0.8c-0.7-0.2-1.4-0.3-2.1-0.2c-0.6,0-1.2,0.2-1.6,0.4c-0.4,0.3-0.7,0.7-0.8,1.3
					c-0.1,0.5-0.1,0.9,0,1.3c0.1,0.4,0.4,0.9,0.9,1.5l-0.7-0.2c-0.4-0.5-0.6-1-0.7-1.5c-0.1-0.5-0.1-1,0.1-1.6
					c0.2-0.8,0.5-1.4,1-1.9c0.5-0.5,1.1-0.9,1.9-1c0.7-0.2,1.5-0.2,2.2,0c0.8,0.2,1.5,0.5,2.1,1.1c0.6,0.5,1,1.2,1.3,1.9
					c0.2,0.7,0.3,1.4,0.1,2.1c-0.1,0.5-0.4,1-0.8,1.5c-0.2,0.3-0.3,0.5-0.4,0.6c0,0.1,0,0.2,0.1,0.3c0.1,0.1,0.2,0.2,0.4,0.3
					L30.4,123.5z"/>
				<path class="st6" d="M25.3,126.3l-2.6-0.3c-0.4-0.1-0.7-0.1-0.8,0c-0.1,0-0.2,0.1-0.3,0.2s-0.2,0.3-0.2,0.5l0,0.2l-0.2,0
					l0.5-3.9l0.2,0l0,0.2c0,0.2,0,0.4,0.1,0.5c0,0.1,0.1,0.2,0.3,0.3c0.1,0.1,0.4,0.1,0.8,0.2l5.5,0.7c0.4,0.1,0.7,0.1,0.8,0
					c0.1,0,0.2-0.1,0.3-0.2c0.1-0.1,0.2-0.3,0.2-0.5l0-0.2l0.2,0l-0.5,3.9l-0.2,0l0-0.2c0-0.2,0-0.4-0.1-0.5c0-0.1-0.1-0.2-0.3-0.3
					c-0.1-0.1-0.4-0.1-0.8-0.2l-2.4-0.3l-0.3,2.6l2.4,0.3c0.4,0.1,0.7,0.1,0.8,0c0.1,0,0.2-0.1,0.3-0.2c0.1-0.1,0.2-0.3,0.2-0.5
					l0-0.2l0.2,0l-0.5,3.9l-0.2,0l0-0.2c0-0.2,0-0.4-0.1-0.5c0-0.1-0.1-0.2-0.3-0.3c-0.1-0.1-0.4-0.1-0.8-0.2l-5.5-0.7
					c-0.4-0.1-0.7-0.1-0.8,0c-0.1,0-0.2,0.1-0.3,0.2c-0.1,0.1-0.2,0.3-0.2,0.5l0,0.2l-0.2,0l0.5-3.9l0.2,0l0,0.2
					c0,0.2,0,0.4,0.1,0.5c0,0.1,0.1,0.2,0.3,0.3c0.1,0.1,0.4,0.1,0.8,0.2L25,129L25.3,126.3z"/>
				<path class="st6" d="M28.9,135.1l-5.3,3.6l3.6,0.1c0.5,0,0.9,0,1-0.2c0.2-0.2,0.4-0.5,0.4-0.9l0.2,0l-0.1,2.5l-0.2,0
					c0-0.3-0.1-0.5-0.2-0.6c-0.1-0.1-0.2-0.2-0.4-0.3c-0.2-0.1-0.4-0.1-0.8-0.1l-7-0.2l0-0.2l7.2-4.9l-5.4-0.1c-0.5,0-0.8,0.1-1,0.3
					c-0.2,0.2-0.3,0.4-0.3,0.7l0,0.2l-0.2,0l0.1-2.7l0.2,0c0,0.4,0.1,0.7,0.3,0.9c0.2,0.2,0.5,0.3,1,0.3l6,0.1l0.2-0.2
					c0.2-0.2,0.4-0.3,0.5-0.4c0.1-0.1,0.1-0.3,0.1-0.5l0.2,0L28.9,135.1z"/>
				<path class="st6" d="M20.9,144.8l-0.2,0l-0.2-3.9l0.2,0l0,0.2c0,0.2,0.1,0.4,0.2,0.5c0.1,0.1,0.2,0.2,0.3,0.2c0.1,0,0.4,0,0.8,0
					l5.6-0.3c0.4,0,0.7-0.1,0.8-0.1c0.1,0,0.2-0.1,0.3-0.3c0.1-0.1,0.1-0.3,0.1-0.5l0-0.2l0.2,0l0.2,3.9l-0.2,0l0-0.2
					c0-0.2-0.1-0.4-0.2-0.5c-0.1-0.1-0.2-0.2-0.3-0.2c-0.1,0-0.4,0-0.8,0l-5.6,0.3c-0.4,0-0.7,0.1-0.8,0.1c-0.1,0-0.2,0.1-0.3,0.3
					c-0.1,0.1-0.1,0.3-0.1,0.5L20.9,144.8z"/>
				<path class="st6" d="M30.2,151.9l-2.9,0.4l0-0.2c0.7-0.3,1.3-0.6,1.6-1.1c0.3-0.5,0.5-1,0.4-1.6c-0.1-0.5-0.3-0.9-0.6-1.2
					c-0.4-0.3-0.8-0.6-1.3-0.7c-0.7-0.1-1.4-0.2-2.1-0.1c-0.8,0.1-1.4,0.3-2,0.5c-0.6,0.2-1,0.6-1.3,1c-0.3,0.4-0.4,0.9-0.3,1.5
					c0.1,0.5,0.2,0.9,0.5,1.2c0.3,0.4,0.7,0.7,1.4,1.1l-0.7,0.1c-0.5-0.4-1-0.7-1.2-1.2c-0.3-0.4-0.5-0.9-0.5-1.5
					c-0.1-0.8,0-1.5,0.3-2.2c0.3-0.7,0.7-1.2,1.4-1.6c0.6-0.4,1.3-0.7,2.1-0.8c0.8-0.1,1.6,0,2.4,0.3c0.8,0.3,1.4,0.7,1.9,1.3
					c0.5,0.6,0.8,1.2,0.9,1.9c0.1,0.5,0,1.1-0.2,1.7c-0.1,0.4-0.2,0.6-0.1,0.7c0,0.1,0.1,0.2,0.2,0.3c0.1,0.1,0.3,0.1,0.5,0.1
					L30.2,151.9z"/>
				<path class="st6" d="M30.7,155.3l1,3.7l-0.2,0.1l-0.1-0.2c-0.1-0.3-0.2-0.5-0.3-0.6c-0.1-0.1-0.2-0.1-0.3-0.1
					c-0.1,0-0.4,0-0.9,0.2l-4,1.1c-0.7,0.2-1.2,0.4-1.4,0.5c-0.2,0.2-0.4,0.4-0.5,0.6c-0.1,0.3-0.1,0.6,0,0.9
					c0.1,0.4,0.3,0.7,0.6,0.9c0.3,0.2,0.6,0.4,1,0.4c0.4,0,1-0.1,1.9-0.3l3.3-0.9c0.4-0.1,0.6-0.2,0.8-0.3c0.1-0.1,0.2-0.2,0.3-0.3
					c0-0.2,0-0.4-0.1-0.7l0.2-0.1l0.7,2.5l-0.2,0.1l0-0.1c-0.1-0.2-0.2-0.4-0.3-0.5c-0.1-0.1-0.3-0.2-0.5-0.2c-0.1,0-0.4,0-0.7,0.1
					l-3.1,0.9c-1,0.3-1.7,0.4-2.1,0.4c-0.5,0-0.9-0.2-1.4-0.5c-0.5-0.3-0.8-0.9-1-1.6c-0.2-0.6-0.2-1.1-0.1-1.5
					c0.1-0.5,0.4-1,0.7-1.3c0.3-0.3,0.9-0.5,1.5-0.7l4-1.1c0.5-0.1,0.8-0.2,0.9-0.3c0.1-0.1,0.2-0.2,0.2-0.3c0-0.1,0-0.4-0.1-0.7
					L30.7,155.3z"/>
				<path class="st6" d="M33.7,165.2l-3.5,5.3l3.4-1.3c0.5-0.2,0.8-0.4,0.9-0.6c0.2-0.3,0.2-0.6,0-1l0.2-0.1l0.9,2.3l-0.2,0.1
					c-0.2-0.3-0.3-0.5-0.4-0.5c-0.1-0.1-0.2-0.1-0.4-0.1c-0.2,0-0.4,0.1-0.8,0.2l-6.6,2.6l-0.1-0.2l4.7-7.3l-5,1.9
					c-0.5,0.2-0.7,0.4-0.8,0.6s-0.1,0.5,0,0.7l0.1,0.2l-0.2,0.1l-1-2.5l0.2-0.1c0.2,0.4,0.3,0.6,0.6,0.7c0.2,0.1,0.6,0,1-0.1
					l5.6-2.2l0.2-0.2c0.2-0.2,0.2-0.4,0.3-0.6c0-0.1,0-0.3-0.1-0.5l0.2-0.1L33.7,165.2z"/>
				<path class="st6" d="M30.1,177.4l-0.2,0.1l-1.7-3.5l0.2-0.1l0.1,0.2c0.1,0.2,0.2,0.3,0.3,0.4c0.1,0.1,0.2,0.1,0.4,0.1
					c0.1,0,0.4-0.1,0.7-0.3l5-2.4c0.4-0.2,0.6-0.3,0.7-0.4c0.1-0.1,0.1-0.2,0.1-0.3c0-0.1,0-0.3-0.1-0.5l-0.1-0.2l0.2-0.1l1.7,3.5
					l-0.2,0.1l-0.1-0.2c-0.1-0.2-0.2-0.3-0.3-0.4c-0.1-0.1-0.2-0.1-0.4-0.1c-0.1,0-0.4,0.1-0.7,0.3l-5,2.4c-0.4,0.2-0.6,0.3-0.7,0.4
					c-0.1,0.1-0.1,0.2-0.1,0.3c0,0.1,0,0.3,0.1,0.5L30.1,177.4z"/>
				<path class="st6" d="M41.5,180.8l-0.2,0.1c-0.2-0.2-0.4-0.3-0.8-0.4c-0.3,0-0.8,0-1.6,0.1l-6.9,1l-0.1-0.2l4.5-5.6
					c0.5-0.7,0.8-1.1,0.9-1.3c0.1-0.2,0-0.4-0.1-0.6l0.2-0.1l1.8,3.1l-0.2,0.1l-0.1-0.1c-0.2-0.3-0.3-0.4-0.5-0.5
					c-0.1,0-0.2,0-0.3,0c-0.1,0-0.1,0.1-0.2,0.2c-0.1,0.1-0.3,0.3-0.6,0.7l-2.8,3.5l4-0.6c0.5-0.1,0.8-0.1,1-0.2
					c0.2,0,0.3-0.1,0.4-0.1c0.1-0.1,0.2-0.1,0.2-0.2c0.1-0.1,0.1-0.2,0.1-0.3c0-0.2-0.1-0.4-0.2-0.6l0.2-0.1L41.5,180.8z"/>
				<path class="st6" d="M42.9,183.4l-2.8,2l0.1,0.1c0.3,0.4,0.6,0.6,1,0.5c0.4,0,0.9-0.2,1.4-0.5l0.1,0.2l-3.6,2.6l-0.1-0.2
					c0.4-0.3,0.6-0.6,0.8-0.9c0.2-0.3,0.2-0.5,0.2-0.8c0-0.2-0.1-0.5-0.4-0.8l-1.9,1.4c-0.4,0.3-0.6,0.5-0.7,0.5
					c-0.1,0.1-0.1,0.2-0.1,0.3c0,0.1,0.1,0.3,0.2,0.4l0.3,0.4c0.4,0.6,0.9,0.9,1.4,1c0.5,0.1,1.2,0,1.9-0.2l0.1,0.2l-2.4,1.3
					l-3.8-5.2l0.2-0.1l0.1,0.2c0.1,0.2,0.3,0.3,0.4,0.3c0.1,0,0.2,0,0.4,0c0.1,0,0.3-0.2,0.7-0.4l4.5-3.3c0.3-0.2,0.5-0.4,0.6-0.4
					c0.1-0.1,0.1-0.2,0.2-0.4c0-0.2-0.1-0.4-0.2-0.6l-0.1-0.2l0.2-0.1l3.7,5.1l-2,1.5l-0.1-0.2c0.4-0.4,0.7-0.8,0.8-1.1
					c0.1-0.3,0.1-0.6,0-1c-0.1-0.2-0.3-0.5-0.6-1L42.9,183.4z"/>
				<path class="st6" d="M44.3,191.9l-1.8,1.6c-0.3,0.3-0.5,0.5-0.6,0.6c-0.1,0.1-0.1,0.2,0,0.4c0,0.1,0.2,0.3,0.4,0.6l-0.2,0.2
					l-2.6-2.9l0.2-0.2c0.2,0.3,0.4,0.4,0.6,0.5c0.1,0,0.3,0,0.4,0c0.1,0,0.4-0.2,0.7-0.5l4.1-3.6c0.3-0.3,0.5-0.5,0.6-0.6
					c0.1-0.1,0.1-0.2,0-0.4c0-0.1-0.2-0.3-0.4-0.6l0.2-0.2l2.3,2.6c0.6,0.7,1,1.2,1.2,1.6c0.2,0.4,0.2,0.8,0.1,1.3
					c-0.1,0.5-0.4,0.8-0.7,1.2c-0.5,0.4-1,0.6-1.6,0.6c-0.4,0-0.7-0.2-1.1-0.4l-0.9,3.2c-0.1,0.4-0.2,0.7-0.2,0.8
					c0,0.2,0.1,0.4,0.2,0.5l-0.2,0.2l-1.6-1.8l1.3-4.4L44.3,191.9z M47.4,189.1l-2.8,2.5l0.2,0.2c0.3,0.4,0.6,0.6,0.9,0.8
					c0.2,0.1,0.5,0.1,0.8,0.1c0.3-0.1,0.6-0.3,1-0.6c0.5-0.4,0.7-0.8,0.8-1.2c0.1-0.4-0.1-0.8-0.5-1.3L47.4,189.1z"/>
				<path class="st6" d="M55.1,196l-1.9,2.1l-0.2-0.2c0.4-0.6,0.6-1.2,0.6-1.8c0-0.6-0.2-1.1-0.6-1.4c-0.3-0.3-0.6-0.4-0.9-0.4
					c-0.3,0-0.6,0.1-0.8,0.3c-0.1,0.1-0.2,0.3-0.3,0.4c-0.1,0.2-0.1,0.5,0,0.8c0,0.2,0.2,0.7,0.4,1.4c0.3,1,0.4,1.7,0.4,2.2
					c-0.1,0.5-0.3,1-0.7,1.4c-0.5,0.5-1.1,0.8-1.8,0.8c-0.7,0-1.3-0.2-1.9-0.7c-0.2-0.2-0.3-0.3-0.4-0.5c-0.1-0.2-0.2-0.4-0.4-0.8
					c-0.1-0.2-0.2-0.3-0.2-0.4c-0.1-0.1-0.2-0.1-0.3-0.1c-0.1,0-0.3,0-0.5,0.1l-0.2-0.1l2.2-2.3l0.2,0.1c-0.5,0.8-0.7,1.5-0.7,2.1
					c0,0.7,0.2,1.2,0.6,1.5c0.3,0.3,0.6,0.4,1,0.4c0.4,0,0.6-0.1,0.9-0.4c0.1-0.1,0.2-0.3,0.3-0.5c0.1-0.2,0.1-0.4,0.1-0.7
					c0-0.3-0.1-0.6-0.3-1.2c-0.2-0.7-0.4-1.3-0.4-1.7c0-0.4,0-0.8,0.1-1.1c0.1-0.3,0.3-0.7,0.6-1c0.5-0.5,1-0.8,1.7-0.8
					c0.6,0,1.2,0.2,1.7,0.6c0.2,0.2,0.3,0.4,0.5,0.6c0.1,0.2,0.2,0.4,0.3,0.6c0.1,0.3,0.2,0.4,0.2,0.5c0.1,0.1,0.1,0.1,0.2,0.1
					c0.1,0,0.2-0.1,0.4-0.2L55.1,196z"/>
				<path class="st6" d="M53.6,205.7l-0.1,0.2l-3-2.5l0.1-0.2l0.2,0.2c0.2,0.1,0.3,0.2,0.5,0.2c0.1,0,0.2,0,0.4-0.1
					c0.1-0.1,0.3-0.2,0.5-0.6l3.5-4.3c0.3-0.3,0.4-0.6,0.5-0.7c0-0.1,0-0.2,0-0.4c0-0.1-0.1-0.3-0.3-0.4l-0.2-0.2l0.1-0.2l3,2.5
					l-0.1,0.2l-0.2-0.2c-0.2-0.1-0.3-0.2-0.5-0.2c-0.1,0-0.2,0-0.4,0.1c-0.1,0.1-0.3,0.2-0.5,0.6l-3.5,4.3c-0.3,0.3-0.4,0.6-0.5,0.7
					c0,0.1,0,0.2,0,0.4c0,0.1,0.1,0.3,0.3,0.4L53.6,205.7z"/>
				<path class="st6" d="M64.7,203.5l-1.3,1.9l-0.2-0.1c0.2-0.5,0.3-0.9,0.3-1.2c0-0.3,0-0.5-0.2-0.8c-0.1-0.1-0.3-0.3-0.5-0.5
					l-0.5-0.3l-3.8,5.3c-0.2,0.4-0.4,0.6-0.4,0.7c0,0.1,0,0.2,0,0.4c0.1,0.1,0.2,0.3,0.3,0.4l0.2,0.1l-0.1,0.2l-3.2-2.3l0.1-0.2
					l0.2,0.1c0.2,0.1,0.3,0.2,0.5,0.2c0.1,0,0.2,0,0.4-0.1c0.1-0.1,0.3-0.3,0.5-0.6l3.8-5.3l-0.4-0.3c-0.4-0.3-0.8-0.4-1.1-0.3
					c-0.5,0.1-0.9,0.4-1.3,0.8l-0.2-0.1l1.3-1.9L64.7,203.5z"/>
				<path class="st6" d="M71.9,207.6l-0.1,0.2c-0.2-0.1-0.4-0.1-0.6-0.1c-0.2,0.1-0.7,0.3-1.5,0.8l-2.9,1.9l-1,1.8
					c-0.2,0.4-0.3,0.6-0.3,0.7c0,0.1,0,0.2,0.1,0.4c0.1,0.1,0.2,0.2,0.4,0.3l0.4,0.2l-0.1,0.2l-3.7-2.1l0.1-0.2l0.3,0.2
					c0.2,0.1,0.4,0.2,0.5,0.1c0.1,0,0.2-0.1,0.3-0.1c0.1-0.1,0.2-0.3,0.4-0.7l0.8-1.5l0.2-4c0-0.8,0-1.3,0-1.5
					c-0.1-0.2-0.2-0.3-0.4-0.5l0.1-0.2l3.1,1.8l-0.1,0.2l-0.1-0.1c-0.2-0.1-0.3-0.2-0.5-0.1c-0.1,0-0.2,0.1-0.2,0.1
					c-0.1,0.1-0.1,0.5-0.2,1.2l-0.2,3.1l2.4-1.5c0.6-0.4,1-0.7,1.1-0.8c0.1-0.1,0.1-0.2,0-0.3c-0.1-0.2-0.2-0.3-0.5-0.5l0.1-0.2
					L71.9,207.6z"/>
			</g>
			<g>
				<path class="st6" d="M76.2,213.4c0.1-0.2,0.1-0.4,0.1-0.5c0-0.1,0-0.3,0-0.6c0-0.3,0-0.5,0.1-0.6c0.1-0.2,0.2-0.3,0.4-0.4
					c0.2-0.1,0.3-0.1,0.5-0.1c0.2,0.1,0.3,0.2,0.3,0.3c0.1,0.2,0,0.4,0,0.6c-0.1,0.2-0.2,0.3-0.4,0.5c-0.2,0.2-0.3,0.3-0.4,0.4
					c-0.1,0.1-0.2,0.3-0.3,0.5c0.2,0,0.4,0,0.5-0.1c0.1,0,0.3-0.1,0.5-0.2c0.3-0.2,0.6-0.2,0.8-0.1c0.2,0.1,0.3,0.2,0.3,0.3
					c0.1,0.2,0.1,0.3,0,0.5c-0.1,0.2-0.2,0.3-0.4,0.4c-0.2,0.1-0.4,0.1-0.6,0c-0.1,0-0.2-0.1-0.4-0.2c-0.1,0-0.2-0.1-0.3-0.1
					c-0.1-0.1-0.3-0.1-0.6-0.2c0.1,0.2,0.1,0.4,0.2,0.5c0.1,0.1,0.2,0.3,0.3,0.5c0.2,0.2,0.3,0.4,0.3,0.5c0,0.1,0,0.3-0.1,0.4
					c-0.1,0.2-0.2,0.3-0.3,0.4c-0.1,0.1-0.3,0.1-0.4,0c-0.1-0.1-0.3-0.2-0.3-0.4c-0.1-0.2-0.1-0.5,0-0.8c0.1-0.2,0.1-0.4,0.1-0.5
					c0-0.1,0-0.3,0-0.5c-0.2,0.2-0.3,0.3-0.4,0.4c-0.1,0.1-0.2,0.2-0.3,0.4c-0.2,0.3-0.4,0.5-0.5,0.6c-0.2,0.1-0.3,0.1-0.5,0
					c-0.1-0.1-0.2-0.2-0.3-0.3c-0.1-0.1-0.1-0.3,0-0.4c0.1-0.2,0.2-0.3,0.3-0.4c0.1-0.1,0.3-0.2,0.6-0.2c0.3,0,0.4-0.1,0.5-0.1
					c0.1,0,0.3-0.1,0.5-0.2l-0.5-0.2c-0.1,0-0.2-0.1-0.3-0.1c-0.2-0.1-0.4-0.1-0.4-0.1c-0.2-0.1-0.3-0.2-0.4-0.4
					c-0.1-0.2-0.1-0.3,0-0.5c0.1-0.2,0.2-0.3,0.3-0.3c0.1-0.1,0.3-0.1,0.5,0c0.2,0.1,0.4,0.3,0.5,0.6c0.1,0.3,0.2,0.5,0.2,0.6
					C76,213.1,76.1,213.2,76.2,213.4z"/>
				<path class="st6" d="M86.9,218.3l3.3-4.9l3,0.7l-0.1,0.2l-0.2-0.1c-0.2-0.1-0.4-0.1-0.6,0c-0.1,0-0.2,0.1-0.3,0.2
					c-0.1,0.1-0.1,0.3-0.2,0.7l-1.3,5.4c-0.1,0.4-0.1,0.7-0.1,0.8c0,0.1,0.1,0.2,0.2,0.3c0.1,0.1,0.3,0.2,0.5,0.2l0.2,0.1l-0.1,0.2
					l-3.8-0.9l0.1-0.2l0.2,0.1c0.2,0.1,0.4,0.1,0.6,0c0.1,0,0.2-0.1,0.3-0.2c0.1-0.1,0.1-0.3,0.2-0.7l1.5-6l-4.7,6.7l-0.1,0l-1-8.1
					l-1.4,5.7c-0.1,0.4-0.2,0.6-0.2,0.7c0,0.2,0.1,0.4,0.2,0.6c0.1,0.2,0.4,0.3,0.7,0.4l-0.1,0.2l-2.5-0.6l0.1-0.2l0.1,0
					c0.2,0,0.3,0.1,0.5,0c0.2,0,0.3-0.1,0.4-0.2c0.1-0.1,0.2-0.2,0.3-0.4c0,0,0.1-0.2,0.2-0.6l1.3-5.2c0.1-0.4,0.1-0.7,0.1-0.8
					c0-0.1-0.1-0.2-0.2-0.3c-0.1-0.1-0.3-0.2-0.5-0.2l-0.2-0.1l0.1-0.2l3,0.7L86.9,218.3z"/>
				<path class="st6" d="M98,220.6l-2.7-0.3l-0.4,0.8c-0.1,0.3-0.2,0.5-0.2,0.7c0,0.2,0,0.4,0.2,0.5c0.1,0.1,0.3,0.2,0.7,0.2l0,0.2
					l-2.5-0.3l0-0.2c0.3,0,0.5-0.1,0.7-0.3c0.2-0.2,0.5-0.6,0.8-1.2l3.4-6.4l0.1,0l2,7.1c0.2,0.7,0.4,1.1,0.5,1.3
					c0.1,0.1,0.3,0.2,0.5,0.3l0,0.2l-3.6-0.4l0-0.2l0.2,0c0.3,0,0.5,0,0.6-0.1c0.1-0.1,0.1-0.1,0.2-0.3c0-0.1,0-0.2,0-0.2
					c0,0,0-0.2-0.1-0.5L98,220.6z M97.9,220.2l-0.8-3l-1.5,2.7L97.9,220.2z"/>
				<path class="st6" d="M110.3,214.8l0,2.9l-0.2,0c-0.2-0.8-0.5-1.3-0.9-1.7c-0.5-0.4-1-0.6-1.5-0.6c-0.5,0-0.9,0.2-1.3,0.5
					c-0.4,0.3-0.7,0.7-0.8,1.2c-0.2,0.6-0.3,1.3-0.3,2.1c0,0.7,0.1,1.4,0.3,2c0.2,0.6,0.5,1.1,0.8,1.4c0.4,0.3,0.8,0.5,1.4,0.4
					c0.5,0,0.9-0.1,1.3-0.4c0.4-0.2,0.8-0.6,1.2-1.2l0,0.7c-0.4,0.5-0.9,0.9-1.3,1.1c-0.5,0.2-1,0.3-1.6,0.4c-0.8,0-1.5-0.2-2.2-0.5
					c-0.6-0.3-1.1-0.9-1.5-1.5c-0.4-0.7-0.5-1.4-0.5-2.1c0-0.8,0.2-1.6,0.5-2.3c0.4-0.7,0.9-1.3,1.5-1.7c0.6-0.4,1.3-0.6,2-0.6
					c0.5,0,1.1,0.1,1.7,0.4c0.3,0.1,0.6,0.2,0.7,0.2c0.1,0,0.2-0.1,0.3-0.1c0.1-0.1,0.1-0.3,0.2-0.5L110.3,214.8z"/>
				<path class="st6" d="M117.1,220.4l-2.7,0.3l-0.2,0.8c-0.1,0.3-0.1,0.5-0.1,0.7c0,0.2,0.1,0.4,0.3,0.5c0.1,0.1,0.4,0.1,0.8,0.1
					l0,0.2l-2.5,0.3l0-0.2c0.3-0.1,0.5-0.2,0.6-0.4c0.2-0.2,0.3-0.7,0.5-1.3l1.9-7l0.1,0l3.5,6.5c0.3,0.6,0.6,1,0.8,1.1
					c0.1,0.1,0.3,0.2,0.6,0.2l0,0.2l-3.6,0.4l0-0.2l0.2,0c0.3,0,0.5-0.1,0.6-0.2c0.1-0.1,0.1-0.2,0.1-0.3c0-0.1,0-0.1-0.1-0.2
					c0,0-0.1-0.2-0.2-0.4L117.1,220.4z M116.9,220l-1.5-2.7l-0.8,3L116.9,220z"/>
				<path class="st6" d="M120.8,213.9l3.8-0.9l0.1,0.2l-0.2,0c-0.3,0.1-0.5,0.1-0.6,0.2c-0.1,0.1-0.1,0.2-0.2,0.3
					c0,0.1,0,0.4,0.1,0.9l1,4c0.2,0.7,0.3,1.2,0.5,1.4c0.2,0.2,0.4,0.4,0.6,0.5c0.3,0.1,0.6,0.1,0.9,0c0.4-0.1,0.7-0.3,1-0.5
					c0.2-0.3,0.4-0.6,0.4-1c0.1-0.4,0-1-0.2-1.9l-0.8-3.3c-0.1-0.4-0.2-0.6-0.3-0.8c-0.1-0.1-0.2-0.2-0.3-0.3c-0.2-0.1-0.4,0-0.7,0
					l-0.1-0.2l2.6-0.6l0.1,0.2l-0.2,0c-0.2,0-0.4,0.1-0.5,0.3c-0.1,0.1-0.2,0.3-0.2,0.5c0,0.1,0,0.4,0.1,0.7l0.7,3.1
					c0.2,1,0.3,1.7,0.3,2.1c0,0.5-0.2,0.9-0.6,1.4c-0.4,0.5-0.9,0.8-1.7,1c-0.6,0.2-1.2,0.2-1.5,0.1c-0.5-0.1-1-0.4-1.2-0.7
					c-0.3-0.4-0.5-0.9-0.7-1.5l-1-4c-0.1-0.5-0.2-0.8-0.3-0.9c-0.1-0.1-0.2-0.2-0.3-0.2c-0.1,0-0.4,0-0.7,0.1L120.8,213.9z"/>
				<path class="st6" d="M135.1,214.1c-0.1-0.2-0.2-0.4-0.3-0.5c-0.1-0.1-0.2-0.3-0.4-0.5c-0.2-0.2-0.3-0.4-0.4-0.5
					c-0.1-0.2-0.1-0.4,0-0.5c0.1-0.2,0.2-0.3,0.3-0.3c0.2-0.1,0.3,0,0.5,0c0.2,0.1,0.3,0.2,0.3,0.4c0.1,0.2,0.1,0.4,0.1,0.6
					c0,0.3,0,0.5,0,0.6c0,0.1,0.1,0.3,0.1,0.6c0.2-0.2,0.3-0.3,0.3-0.4c0.1-0.1,0.1-0.3,0.2-0.5c0.1-0.3,0.3-0.5,0.5-0.6
					c0.2-0.1,0.3,0,0.5,0c0.1,0.1,0.3,0.2,0.3,0.3c0.1,0.2,0.1,0.3,0,0.5c-0.1,0.2-0.2,0.3-0.4,0.4c-0.1,0-0.2,0.1-0.4,0.1
					c-0.1,0-0.2,0.1-0.3,0.1c-0.1,0-0.3,0.1-0.6,0.2c0.2,0.1,0.4,0.2,0.5,0.3c0.1,0,0.3,0.1,0.5,0.1c0.3,0,0.4,0.1,0.6,0.2
					c0.1,0.1,0.2,0.2,0.2,0.3c0.1,0.2,0.1,0.3,0,0.5c-0.1,0.2-0.2,0.3-0.3,0.3c-0.2,0.1-0.3,0-0.5-0.1c-0.2-0.1-0.3-0.3-0.5-0.6
					c-0.1-0.2-0.2-0.4-0.3-0.5c-0.1-0.1-0.2-0.2-0.4-0.4c0,0.2-0.1,0.4-0.1,0.6c0,0.1,0,0.3,0.1,0.5c0.1,0.4,0.1,0.6,0,0.8
					c-0.1,0.2-0.2,0.3-0.3,0.3c-0.1,0.1-0.3,0-0.4,0c-0.1-0.1-0.2-0.2-0.3-0.3c-0.1-0.2-0.1-0.3,0-0.5c0-0.2,0.1-0.3,0.3-0.5
					c0.2-0.2,0.3-0.4,0.3-0.5c0.1-0.1,0.1-0.3,0.2-0.5l-0.6,0.2c-0.1,0-0.2,0.1-0.3,0.1c-0.2,0.1-0.3,0.2-0.4,0.2
					c-0.2,0.1-0.4,0.1-0.6,0c-0.2-0.1-0.3-0.2-0.4-0.4c-0.1-0.2-0.1-0.3,0-0.5c0.1-0.2,0.2-0.3,0.3-0.3c0.2-0.1,0.5,0,0.8,0.1
					c0.3,0.2,0.5,0.2,0.6,0.3C134.7,214.1,134.8,214.1,135.1,214.1z"/>
			</g>
		</g>
	</g>
</g>
</svg>
